Space-Mono-Bold.ufo
<glyph name="exclam" format="1">
  <advance width="612"/>
  <unicode hex="0021"/>
  <outline>
    <contour>
      <point x="240" y="700" type="line"/>
      <point x="240" y="212" type="line"/>
      <point x="372" y="212" type="line"/>
      <point x="372" y="700" type="line"/>
    </contour>
    <contour>
      <point x="401" y="81" type="curve" smooth="yes"/>
      <point x="401" y="134"/>
      <point x="358" y="176"/>
      <point x="306" y="176" type="curve" smooth="yes"/>
      <point x="254" y="176"/>
      <point x="211" y="134"/>
      <point x="211" y="81" type="curve" smooth="yes"/>
      <point x="211" y="28"/>
      <point x="254" y="-14"/>
      <point x="306" y="-14" type="curve" smooth="yes"/>
      <point x="358" y="-14"/>
      <point x="401" y="28"/>
    </contour>
  </outline>
</glyph>
<glyph name="numbersign" format="1">
  <advance width="612"/>
  <unicode hex="0023"/>
  <outline>
    <contour>
      <point x="452" y="90" type="line"/>
      <point x="452" y="204" type="line"/>
      <point x="554" y="204" type="line"/>
      <point x="554" y="312" type="line"/>
      <point x="452" y="312" type="line"/>
      <point x="452" y="388" type="line"/>
      <point x="554" y="388" type="line"/>
      <point x="554" y="496" type="line"/>
      <point x="452" y="496" type="line"/>
      <point x="452" y="610" type="line"/>
      <point x="344" y="610" type="line"/>
      <point x="344" y="496" type="line"/>
      <point x="268" y="496" type="line"/>
      <point x="268" y="610" type="line"/>
      <point x="160" y="610" type="line"/>
      <point x="160" y="496" type="line"/>
      <point x="58" y="496" type="line"/>
      <point x="58" y="388" type="line"/>
      <point x="160" y="388" type="line"/>
      <point x="160" y="312" type="line"/>
      <point x="58" y="312" type="line"/>
      <point x="58" y="204" type="line"/>
      <point x="160" y="204" type="line"/>
      <point x="160" y="90" type="line"/>
      <point x="268" y="90" type="line"/>
      <point x="268" y="204" type="line"/>
      <point x="344" y="204" type="line"/>
      <point x="344" y="90" type="line"/>
    </contour>
    <contour>
      <point x="344" y="312" type="line"/>
      <point x="268" y="312" type="line"/>
      <point x="268" y="388" type="line"/>
      <point x="344" y="388" type="line"/>
    </contour>
  </outline>
</glyph>
<glyph name="percent" format="1">
  <advance width="612"/>
  <unicode hex="0025"/>
  <outline>
    <contour>
      <point x="338" y="562" type="curve" smooth="yes"/>
      <point x="338" y="657"/>
      <point x="262" y="712"/>
      <point x="185" y="712" type="curve" smooth="yes"/>
      <point x="108" y="712"/>
      <point x="32" y="657"/>
      <point x="32" y="562" type="curve" smooth="yes"/>
      <point x="32" y="467"/>
      <point x="108" y="412"/>
      <point x="185" y="412" type="curve" smooth="yes"/>
      <point x="262" y="412"/>
      <point x="338" y="467"/>
    </contour>
    <contour>
      <point x="185" y="496" type="curve" smooth="yes"/>
      <point x="152" y="496"/>
      <point x="122" y="520"/>
      <point x="122" y="562" type="curve" smooth="yes"/>
      <point x="122" y="604"/>
      <point x="152" y="628"/>
      <point x="185" y="628" type="curve" smooth="yes"/>
      <point x="218" y="628"/>
      <point x="248" y="604"/>
      <point x="248" y="562" type="curve" smooth="yes"/>
      <point x="248" y="520"/>
      <point x="218" y="496"/>
    </contour>
    <contour>
      <point x="580" y="138" type="curve"/>
      <point x="580" y="233"/>
      <point x="504" y="288"/>
      <point x="427" y="288" type="curve" smooth="yes"/>
      <point x="350" y="288"/>
      <point x="274" y="233"/>
      <point x="274" y="138" type="curve" smooth="yes"/>
      <point x="274" y="43"/>
      <point x="350" y="-12"/>
      <point x="427" y="-12" type="curve" smooth="yes"/>
      <point x="504" y="-12"/>
      <point x="580" y="43"/>
    </contour>
    <contour>
      <point x="427" y="72" type="curve"/>
      <point x="394" y="72"/>
      <point x="364" y="96"/>
      <point x="364" y="138" type="curve" smooth="yes"/>
      <point x="364" y="180"/>
      <point x="394" y="204"/>
      <point x="427" y="204" type="curve" smooth="yes"/>
      <point x="460" y="204"/>
      <point x="490" y="180"/>
      <point x="490" y="138" type="curve" smooth="yes"/>
      <point x="490" y="96"/>
      <point x="460" y="72"/>
    </contour>
    <component base="fraction"/>
  </outline>
</glyph>
<glyph name="parenleft" format="1">
  <advance width="612"/>
  <unicode hex="0028"/>
  <outline>
    <contour>
      <point x="534" y="-30" type="line"/>
      <point x="396" y="-30"/>
      <point x="292" y="42"/>
      <point x="292" y="226" type="curve" smooth="yes"/>
      <point x="292" y="474" type="line" smooth="yes"/>
      <point x="292" y="658"/>
      <point x="396" y="730"/>
      <point x="534" y="730" type="curve" smooth="yes"/>
      <point x="570" y="730" type="line"/>
      <point x="570" y="856" type="line"/>
      <point x="528" y="856" type="line" smooth="yes"/>
      <point x="330" y="856"/>
      <point x="162" y="744"/>
      <point x="162" y="482" type="curve" smooth="yes"/>
      <point x="162" y="218" type="line" smooth="yes"/>
      <point x="162" y="-44"/>
      <point x="330" y="-156"/>
      <point x="528" y="-156" type="curve" smooth="yes"/>
      <point x="570" y="-156" type="line"/>
      <point x="570" y="-30" type="line"/>
    </contour>
  </outline>
</glyph>
<glyph name="parenright" format="1">
  <advance width="612"/>
  <unicode hex="0029"/>
  <outline>
    <contour>
      <point x="42" y="-30" type="line"/>
      <point x="42" y="-156" type="line"/>
      <point x="84" y="-156" type="line" smooth="yes"/>
      <point x="282" y="-156"/>
      <point x="450" y="-44"/>
      <point x="450" y="218" type="curve" smooth="yes"/>
      <point x="450" y="482" type="line" smooth="yes"/>
      <point x="450" y="744"/>
      <point x="282" y="856"/>
      <point x="84" y="856" type="curve" smooth="yes"/>
      <point x="42" y="856" type="line"/>
      <point x="42" y="730" type="line"/>
      <point x="78" y="730" type="line" smooth="yes"/>
      <point x="216" y="730"/>
      <point x="320" y="658"/>
      <point x="320" y="474" type="curve" smooth="yes"/>
      <point x="320" y="226" type="line" smooth="yes"/>
      <point x="320" y="42"/>
      <point x="216" y="-30"/>
      <point x="78" y="-30" type="curve"/>
    </contour>
  </outline>
</glyph>
<glyph name="plus" format="1">
  <advance width="612"/>
  <unicode hex="002B"/>
  <outline>
    <contour>
      <point x="97" y="293" type="line"/>
      <point x="249" y="293" type="line"/>
      <point x="249" y="141" type="line"/>
      <point x="363" y="141" type="line"/>
      <point x="363" y="293" type="line"/>
      <point x="515" y="293" type="line"/>
      <point x="515" y="407" type="line"/>
      <point x="363" y="407" type="line"/>
      <point x="363" y="559" type="line"/>
      <point x="249" y="559" type="line"/>
      <point x="249" y="407" type="line"/>
      <point x="97" y="407" type="line"/>
    </contour>
  </outline>
</glyph>
<glyph name="comma" format="1">
  <advance width="612"/>
  <unicode hex="002C"/>
  <outline>
    <contour>
      <point x="211" y="81" type="curve" smooth="yes"/>
      <point x="211" y="29"/>
      <point x="254" y="-14"/>
      <point x="306" y="-14" type="curve" smooth="yes"/>
      <point x="312" y="-14"/>
      <point x="318" y="-13"/>
      <point x="323" y="-11" type="curve"/>
      <point x="323" y="-23" type="line" smooth="yes"/>
      <point x="323" y="-42"/>
      <point x="315" y="-53"/>
      <point x="296" y="-53" type="curve" smooth="yes"/>
      <point x="248" y="-53" type="line"/>
      <point x="248" y="-131" type="line"/>
      <point x="312" y="-131" type="line" smooth="yes"/>
      <point x="363" y="-131"/>
      <point x="401" y="-92"/>
      <point x="401" y="-41" type="curve" smooth="yes"/>
      <point x="401" y="81" type="line" smooth="yes"/>
      <point x="401" y="133"/>
      <point x="358" y="175"/>
      <point x="306" y="175" type="curve" smooth="yes"/>
      <point x="254" y="175"/>
      <point x="211" y="133"/>
    </contour>
  </outline>
</glyph>
<glyph name="two" format="1">
  <advance width="612"/>
  <unicode hex="0032"/>
  <outline>
    <contour>
      <point x="197" y="126" type="line"/>
      <point x="197" y="138" type="line" smooth="yes"/>
      <point x="197" y="194"/>
      <point x="226" y="225"/>
      <point x="352" y="254" type="curve" smooth="yes"/>
      <point x="501" y="288"/>
      <point x="563" y="368"/>
      <point x="563" y="484" type="curve" smooth="yes"/>
      <point x="563" y="496" type="line" smooth="yes"/>
      <point x="563" y="608"/>
      <point x="480" y="714"/>
      <point x="312" y="714" type="curve" smooth="yes"/>
      <point x="154" y="714"/>
      <point x="59" y="602"/>
      <point x="59" y="470" type="curve" smooth="yes"/>
      <point x="59" y="414" type="line"/>
      <point x="191" y="414" type="line"/>
      <point x="191" y="458" type="line" smooth="yes"/>
      <point x="191" y="539"/>
      <point x="240" y="588"/>
      <point x="316" y="588" type="curve" smooth="yes"/>
      <point x="388" y="588"/>
      <point x="431" y="546"/>
      <point x="431" y="490" type="curve" smooth="yes"/>
      <point x="431" y="432"/>
      <point x="405" y="396"/>
      <point x="299" y="372" type="curve" smooth="yes"/>
      <point x="156" y="340"/>
      <point x="65" y="284"/>
      <point x="65" y="138" type="curve" smooth="yes"/>
      <point x="65" y="0" type="line"/>
      <point x="557" y="0" type="line"/>
      <point x="557" y="126" type="line"/>
    </contour>
  </outline>
</glyph>
<glyph name="three" format="1">
  <advance width="612"/>
  <unicode hex="0033"/>
  <outline>
    <contour>
      <point x="238" y="300" type="line"/>
      <point x="238" y="508" type="line"/>
      <point x="412" y="556" type="line"/>
      <point x="412" y="574" type="line"/>
      <point x="64" y="574" type="line"/>
      <point x="64" y="700" type="line"/>
      <point x="520" y="700" type="line"/>
      <point x="520" y="480" type="line"/>
      <point x="334" y="426" type="line"/>
      <point x="334" y="408" type="line"/>
      <point x="358" y="408" type="line" smooth="yes"/>
      <point x="458" y="408"/>
      <point x="556" y="346"/>
      <point x="556" y="218" type="curve" smooth="yes"/>
      <point x="556" y="206" type="line" smooth="yes"/>
      <point x="556" y="81"/>
      <point x="472" y="-14"/>
      <point x="316" y="-14" type="curve" smooth="yes"/>
      <point x="158" y="-14"/>
      <point x="58" y="96"/>
      <point x="58" y="224" type="curve" smooth="yes"/>
      <point x="58" y="266" type="line"/>
      <point x="190" y="266" type="line"/>
      <point x="190" y="230" type="line" smooth="yes"/>
      <point x="190" y="166"/>
      <point x="232" y="112"/>
      <point x="314" y="112" type="curve" smooth="yes"/>
      <point x="384" y="112"/>
      <point x="424" y="152"/>
      <point x="424" y="210" type="curve" smooth="yes"/>
      <point x="424" y="272"/>
      <point x="378" y="300"/>
      <point x="316" y="300" type="curve" smooth="yes"/>
    </contour>
  </outline>
</glyph>
<glyph name="four" format="1">
  <advance width="612"/>
  <unicode hex="0034"/>
  <outline>
    <contour>
      <point x="232" y="700" type="line"/>
      <point x="232" y="700"/>
      <point x="482" y="700"/>
      <point x="482" y="700" type="curve"/>
      <point x="482" y="700"/>
      <point x="482" y="258"/>
      <point x="482" y="258" type="curve"/>
      <point x="482" y="258"/>
      <point x="584" y="258"/>
      <point x="584" y="258" type="curve"/>
      <point x="584" y="258"/>
      <point x="584" y="132"/>
      <point x="584" y="132" type="curve"/>
      <point x="584" y="132"/>
      <point x="482" y="132"/>
      <point x="482" y="132" type="curve"/>
      <point x="482" y="132"/>
      <point x="482" y="0"/>
      <point x="482" y="0" type="curve"/>
      <point x="482" y="0"/>
      <point x="350" y="0"/>
      <point x="350" y="0" type="curve"/>
      <point x="350" y="0"/>
      <point x="350" y="132"/>
      <point x="350" y="132" type="curve"/>
      <point x="350" y="132"/>
      <point x="38" y="132"/>
      <point x="38" y="132" type="curve"/>
      <point x="38" y="314" type="line"/>
    </contour>
    <contour>
      <point x="152" y="276" type="line"/>
      <point x="152" y="258" type="line"/>
      <point x="152" y="258"/>
      <point x="350" y="258"/>
      <point x="350" y="258" type="curve"/>
      <point x="350" y="258"/>
      <point x="350" y="634"/>
      <point x="350" y="634" type="curve"/>
      <point x="350" y="634"/>
      <point x="332" y="634"/>
      <point x="332" y="634" type="curve"/>
    </contour>
  </outline>
</glyph>
<glyph name="five" format="1">
  <advance width="612"/>
  <unicode hex="0035"/>
  <outline>
    <contour>
      <point x="66" y="312" type="line"/>
      <point x="66" y="700" type="line"/>
      <point x="534" y="700" type="line"/>
      <point x="534" y="574" type="line"/>
      <point x="198" y="574" type="line"/>
      <point x="198" y="384" type="line"/>
      <point x="216" y="384" type="line"/>
      <point x="234" y="436"/>
      <point x="286" y="480"/>
      <point x="372" y="480" type="curve" smooth="yes"/>
      <point x="502" y="480"/>
      <point x="582" y="386"/>
      <point x="582" y="252" type="curve" smooth="yes"/>
      <point x="582" y="246" type="line" smooth="yes"/>
      <point x="582" y="106"/>
      <point x="488" y="-14"/>
      <point x="318" y="-14" type="curve" smooth="yes"/>
      <point x="148" y="-14"/>
      <point x="54" y="86"/>
      <point x="54" y="222" type="curve" smooth="yes"/>
      <point x="54" y="246" type="line"/>
      <point x="186" y="246" type="line"/>
      <point x="186" y="234" type="line" smooth="yes"/>
      <point x="186" y="164"/>
      <point x="230" y="112"/>
      <point x="314" y="112" type="curve" smooth="yes"/>
      <point x="398" y="112"/>
      <point x="450" y="160"/>
      <point x="450" y="240" type="curve" smooth="yes"/>
      <point x="450" y="316"/>
      <point x="410" y="354"/>
      <point x="352" y="354" type="curve" smooth="yes"/>
      <point x="313" y="354"/>
      <point x="288" y="334"/>
      <point x="282" y="312" type="curve"/>
    </contour>
  </outline>
</glyph>
<glyph name="six" format="1">
  <advance width="612"/>
  <unicode hex="0036"/>
  <outline>
    <contour>
      <point x="543" y="502" type="line"/>
      <point x="543" y="634"/>
      <point x="438" y="714"/>
      <point x="304" y="714" type="curve" smooth="yes"/>
      <point x="172" y="714"/>
      <point x="57" y="620"/>
      <point x="57" y="472" type="curve" smooth="yes"/>
      <point x="57" y="217" type="line" smooth="yes"/>
      <point x="57" y="81"/>
      <point x="168" y="-14"/>
      <point x="306" y="-14" type="curve" smooth="yes"/>
      <point x="458" y="-14"/>
      <point x="555" y="86"/>
      <point x="555" y="228" type="curve" smooth="yes"/>
      <point x="555" y="240" type="line" smooth="yes"/>
      <point x="555" y="378"/>
      <point x="464" y="462"/>
      <point x="348" y="462" type="curve" smooth="yes"/>
      <point x="284" y="462"/>
      <point x="230" y="430"/>
      <point x="207" y="384" type="curve"/>
      <point x="189" y="384" type="line"/>
      <point x="189" y="474" type="line" smooth="yes"/>
      <point x="189" y="542"/>
      <point x="234" y="588"/>
      <point x="306" y="588" type="curve" smooth="yes"/>
      <point x="378" y="588"/>
      <point x="411" y="548"/>
      <point x="411" y="502" type="curve"/>
    </contour>
    <contour>
      <point x="306" y="112" type="curve"/>
      <point x="238" y="112"/>
      <point x="189" y="156"/>
      <point x="189" y="224" type="curve"/>
      <point x="189" y="292"/>
      <point x="238" y="336"/>
      <point x="306" y="336" type="curve" smooth="yes"/>
      <point x="374" y="336"/>
      <point x="423" y="292"/>
      <point x="423" y="224" type="curve" smooth="yes"/>
      <point x="423" y="156"/>
      <point x="374" y="112"/>
    </contour>
  </outline>
</glyph>
<glyph name="seven" format="1">
  <advance width="612"/>
  <unicode hex="0037"/>
  <outline>
    <contour>
      <point x="60" y="574" type="line"/>
      <point x="432" y="574" type="line"/>
      <point x="432" y="556" type="line"/>
      <point x="171" y="174" type="line" smooth="yes"/>
      <point x="128" y="110"/>
      <point x="114" y="84"/>
      <point x="114" y="30" type="curve" smooth="yes"/>
      <point x="114" y="0" type="line"/>
      <point x="256" y="0" type="line"/>
      <point x="256" y="24" type="line" smooth="yes"/>
      <point x="256" y="60"/>
      <point x="272" y="84"/>
      <point x="299" y="124" type="curve" smooth="yes"/>
      <point x="552" y="494" type="line"/>
      <point x="552" y="700" type="line"/>
      <point x="60" y="700" type="line"/>
    </contour>
  </outline>
</glyph>
<glyph name="nine" format="1">
  <advance width="612"/>
  <unicode hex="0039"/>
  <outline>
    <contour>
      <point x="69" y="198" type="line"/>
      <point x="69" y="66"/>
      <point x="174" y="-14"/>
      <point x="310" y="-14" type="curve" smooth="yes"/>
      <point x="448" y="-14"/>
      <point x="555" y="76"/>
      <point x="555" y="228" type="curve" smooth="yes"/>
      <point x="555" y="483" type="line" smooth="yes"/>
      <point x="555" y="620"/>
      <point x="448" y="714"/>
      <point x="308" y="714" type="curve" smooth="yes"/>
      <point x="156" y="714"/>
      <point x="57" y="612"/>
      <point x="57" y="478" type="curve" smooth="yes"/>
      <point x="57" y="466" type="line" smooth="yes"/>
      <point x="57" y="330"/>
      <point x="148" y="238"/>
      <point x="268" y="238" type="curve" smooth="yes"/>
      <point x="346" y="238"/>
      <point x="386" y="270"/>
      <point x="405" y="316" type="curve"/>
      <point x="423" y="316" type="line"/>
      <point x="423" y="226" type="line" smooth="yes"/>
      <point x="423" y="158"/>
      <point x="378" y="112"/>
      <point x="306" y="112" type="curve" smooth="yes"/>
      <point x="234" y="112"/>
      <point x="201" y="152"/>
      <point x="201" y="198" type="curve"/>
    </contour>
    <contour>
      <point x="306" y="588" type="curve"/>
      <point x="374" y="588"/>
      <point x="423" y="544"/>
      <point x="423" y="476" type="curve" smooth="yes"/>
      <point x="423" y="408"/>
      <point x="374" y="364"/>
      <point x="306" y="364" type="curve" smooth="yes"/>
      <point x="238" y="364"/>
      <point x="189" y="408"/>
      <point x="189" y="476" type="curve" smooth="yes"/>
      <point x="189" y="544"/>
      <point x="238" y="588"/>
    </contour>
  </outline>
</glyph>
<glyph name="question" format="1">
  <advance width="612"/>
  <unicode hex="003F"/>
  <outline>
    <contour>
      <point x="309" y="390" type="line" smooth="yes"/>
      <point x="257" y="390"/>
      <point x="217" y="350"/>
      <point x="217" y="298" type="curve" smooth="yes"/>
      <point x="217" y="212" type="line"/>
      <point x="343" y="212" type="line"/>
      <point x="343" y="245" type="line" smooth="yes"/>
      <point x="343" y="263"/>
      <point x="353" y="275"/>
      <point x="371" y="275" type="curve" smooth="yes"/>
      <point x="484" y="275"/>
      <point x="552" y="372"/>
      <point x="552" y="480" type="curve" smooth="yes"/>
      <point x="552" y="486" type="line" smooth="yes"/>
      <point x="552" y="614"/>
      <point x="456" y="714"/>
      <point x="314" y="714" type="curve" smooth="yes"/>
      <point x="156" y="714"/>
      <point x="66" y="602"/>
      <point x="66" y="482" type="curve" smooth="yes"/>
      <point x="66" y="428" type="line"/>
      <point x="198" y="428" type="line"/>
      <point x="198" y="470" type="line" smooth="yes"/>
      <point x="198" y="532"/>
      <point x="240" y="588"/>
      <point x="312" y="588" type="curve" smooth="yes"/>
      <point x="378" y="588"/>
      <point x="420" y="544"/>
      <point x="420" y="488" type="curve" smooth="yes"/>
      <point x="420" y="430"/>
      <point x="385" y="390"/>
      <point x="328" y="390" type="curve" smooth="yes"/>
    </contour>
    <contour>
      <point x="376" y="81" type="curve" smooth="yes"/>
      <point x="376" y="134"/>
      <point x="333" y="176"/>
      <point x="281" y="176" type="curve" smooth="yes"/>
      <point x="229" y="176"/>
      <point x="186" y="134"/>
      <point x="186" y="81" type="curve" smooth="yes"/>
      <point x="186" y="28"/>
      <point x="229" y="-14"/>
      <point x="281" y="-14" type="curve" smooth="yes"/>
      <point x="333" y="-14"/>
      <point x="376" y="28"/>
    </contour>
  </outline>
</glyph>
<glyph name="A" format="1">
  <advance width="612"/>
  <unicode hex="0041"/>
  <outline>
    <contour>
      <point x="459" y="0" type="line"/>
      <point x="597" y="0" type="line"/>
      <point x="430" y="700" type="line"/>
      <point x="182" y="700" type="line"/>
      <point x="15" y="0" type="line"/>
      <point x="153" y="0" type="line"/>
      <point x="187" y="150" type="line"/>
      <point x="425" y="150" type="line"/>
    </contour>
    <contour>
      <point x="297" y="634" type="line"/>
      <point x="315" y="634" type="line"/>
      <point x="396" y="276" type="line"/>
      <point x="215" y="276" type="line"/>
    </contour>
  </outline>
</glyph>
<glyph name="I" format="1">
  <advance width="612"/>
  <unicode hex="0049"/>
  <outline>
    <contour>
      <point x="72" y="574" type="line"/>
      <point x="240" y="574" type="line"/>
      <point x="240" y="126" type="line"/>
      <point x="72" y="126" type="line"/>
      <point x="72" y="0" type="line"/>
      <point x="540" y="0" type="line"/>
      <point x="540" y="126" type="line"/>
      <point x="372" y="126" type="line"/>
      <point x="372" y="574" type="line"/>
      <point x="540" y="574" type="line"/>
      <point x="540" y="700" type="line"/>
      <point x="72" y="700" type="line"/>
    </contour>
  </outline>
</glyph>
<glyph name="O" format="1">
  <advance width="612"/>
  <unicode hex="004F"/>
  <outline>
    <contour>
      <point x="48" y="272" type="line"/>
      <point x="48" y="86"/>
      <point x="146" y="-14"/>
      <point x="306" y="-14" type="curve" smooth="yes"/>
      <point x="466" y="-14"/>
      <point x="564" y="86"/>
      <point x="564" y="272" type="curve" smooth="yes"/>
      <point x="564" y="428" type="line" smooth="yes"/>
      <point x="564" y="608"/>
      <point x="466" y="714"/>
      <point x="306" y="714" type="curve" smooth="yes"/>
      <point x="146" y="714"/>
      <point x="48" y="608"/>
      <point x="48" y="428" type="curve"/>
    </contour>
    <contour>
      <point x="306" y="106" type="curve"/>
      <point x="210" y="106"/>
      <point x="180" y="170"/>
      <point x="180" y="264" type="curve" smooth="yes"/>
      <point x="180" y="436" type="line" smooth="yes"/>
      <point x="180" y="524"/>
      <point x="216" y="594"/>
      <point x="306" y="594" type="curve" smooth="yes"/>
      <point x="396" y="594"/>
      <point x="432" y="524"/>
      <point x="432" y="436" type="curve" smooth="yes"/>
      <point x="432" y="264" type="line" smooth="yes"/>
      <point x="432" y="170"/>
      <point x="402" y="106"/>
    </contour>
  </outline>
</glyph>
<glyph name="Q" format="1">
  <advance width="612"/>
  <unicode hex="0051"/>
  <outline>
    <contour>
      <point x="243" y="-78" type="line" smooth="yes"/>
      <point x="243" y="-132"/>
      <point x="284" y="-174"/>
      <point x="338" y="-174" type="curve" smooth="yes"/>
      <point x="456" y="-174" type="line"/>
      <point x="456" y="-54" type="line"/>
      <point x="394" y="-54" type="line" smooth="yes"/>
      <point x="376" y="-54"/>
      <point x="369" y="-44"/>
      <point x="369" y="-26" type="curve" smooth="yes"/>
      <point x="369" y="-8" type="line"/>
      <point x="491" y="15"/>
      <point x="564" y="112"/>
      <point x="564" y="272" type="curve" smooth="yes"/>
      <point x="564" y="428" type="line" smooth="yes"/>
      <point x="564" y="608"/>
      <point x="466" y="714"/>
      <point x="306" y="714" type="curve" smooth="yes"/>
      <point x="146" y="714"/>
      <point x="48" y="608"/>
      <point x="48" y="428" type="curve" smooth="yes"/>
      <point x="48" y="272" type="line" smooth="yes"/>
      <point x="48" y="112"/>
      <point x="120" y="15"/>
      <point x="243" y="-8" type="curve"/>
    </contour>
    <contour>
      <point x="306" y="106" type="curve" smooth="yes"/>
      <point x="210" y="106"/>
      <point x="180" y="172"/>
      <point x="180" y="266" type="curve" smooth="yes"/>
      <point x="180" y="434" type="line" smooth="yes"/>
      <point x="180" y="522"/>
      <point x="216" y="594"/>
      <point x="306" y="594" type="curve" smooth="yes"/>
      <point x="396" y="594"/>
      <point x="432" y="522"/>
      <point x="432" y="434" type="curve" smooth="yes"/>
      <point x="432" y="266" type="line" smooth="yes"/>
      <point x="432" y="172"/>
      <point x="402" y="106"/>
    </contour>
  </outline>
</glyph>
<glyph name="R" format="1">
  <advance width="612"/>
  <unicode hex="0052"/>
  <outline>
    <contour>
      <point x="543" y="242" type="line" smooth="yes"/>
      <point x="543" y="288"/>
      <point x="514" y="322"/>
      <point x="467" y="327" type="curve"/>
      <point x="467" y="345" type="line"/>
      <point x="530" y="372"/>
      <point x="561" y="426"/>
      <point x="561" y="483" type="curve" smooth="yes"/>
      <point x="561" y="507" type="line" smooth="yes"/>
      <point x="561" y="614"/>
      <point x="484" y="700"/>
      <point x="341" y="700" type="curve" smooth="yes"/>
      <point x="73" y="700" type="line"/>
      <point x="73" y="0" type="line"/>
      <point x="205" y="0" type="line"/>
      <point x="205" y="264" type="line"/>
      <point x="357" y="264" type="line" smooth="yes"/>
      <point x="395" y="264"/>
      <point x="411" y="242"/>
      <point x="411" y="210" type="curve" smooth="yes"/>
      <point x="411" y="0" type="line"/>
      <point x="543" y="0" type="line"/>
    </contour>
    <contour>
      <point x="205" y="574" type="line"/>
      <point x="331" y="574" type="line" smooth="yes"/>
      <point x="395" y="574"/>
      <point x="429" y="534"/>
      <point x="429" y="488" type="curve" smooth="yes"/>
      <point x="429" y="476" type="line" smooth="yes"/>
      <point x="429" y="422"/>
      <point x="395" y="390"/>
      <point x="331" y="390" type="curve" smooth="yes"/>
      <point x="205" y="390" type="line"/>
    </contour>
  </outline>
</glyph>
<glyph name="S" format="1">
  <advance width="612"/>
  <unicode hex="0053"/>
  <outline>
    <contour>
      <point x="426" y="462" type="line"/>
      <point x="558" y="462" type="line"/>
      <point x="558" y="498" type="line" smooth="yes"/>
      <point x="558" y="612"/>
      <point x="468" y="714"/>
      <point x="302" y="714" type="curve" smooth="yes"/>
      <point x="156" y="714"/>
      <point x="60" y="628"/>
      <point x="60" y="514" type="curve" smooth="yes"/>
      <point x="60" y="508" type="line" smooth="yes"/>
      <point x="60" y="370"/>
      <point x="162" y="322"/>
      <point x="302" y="298" type="curve" smooth="yes"/>
      <point x="410" y="280"/>
      <point x="436" y="244"/>
      <point x="436" y="198" type="curve" smooth="yes"/>
      <point x="436" y="150"/>
      <point x="398" y="110"/>
      <point x="318" y="110" type="curve" smooth="yes"/>
      <point x="216" y="110"/>
      <point x="168" y="164"/>
      <point x="168" y="248" type="curve" smooth="yes"/>
      <point x="168" y="272" type="line"/>
      <point x="36" y="272" type="line"/>
      <point x="36" y="242" type="line" smooth="yes"/>
      <point x="36" y="96"/>
      <point x="132" y="-14"/>
      <point x="316" y="-14" type="curve" smooth="yes"/>
      <point x="473" y="-14"/>
      <point x="570" y="70"/>
      <point x="570" y="200" type="curve" smooth="yes"/>
      <point x="570" y="212" type="line" smooth="yes"/>
      <point x="570" y="334"/>
      <point x="490" y="392"/>
      <point x="344" y="418" type="curve" smooth="yes"/>
      <point x="228" y="439"/>
      <point x="194" y="466"/>
      <point x="194" y="514" type="curve"/>
      <point x="194" y="560"/>
      <point x="236" y="590"/>
      <point x="302" y="590" type="curve" smooth="yes"/>
      <point x="380" y="590"/>
      <point x="426" y="542"/>
      <point x="426" y="486" type="curve" smooth="yes"/>
    </contour>
  </outline>
</glyph>
<glyph name="W" format="1">
  <advance width="612"/>
  <unicode hex="0057"/>
  <outline>
    <contour>
      <point x="604" y="700" type="line"/>
      <point x="484" y="700" type="line"/>
      <point x="468" y="168" type="line"/>
      <point x="468" y="78" type="line"/>
      <point x="444" y="78" type="line"/>
      <point x="444" y="168" type="line"/>
      <point x="412" y="700" type="line"/>
      <point x="200" y="700" type="line"/>
      <point x="168" y="168" type="line"/>
      <point x="168" y="78" type="line"/>
      <point x="144" y="78" type="line"/>
      <point x="144" y="168" type="line"/>
      <point x="128" y="700" type="line"/>
      <point x="8" y="700" type="line"/>
      <point x="32" y="0" type="line"/>
      <point x="262" y="0" type="line"/>
      <point x="294" y="532" type="line"/>
      <point x="294" y="628" type="line"/>
      <point x="318" y="628" type="line"/>
      <point x="318" y="532" type="line"/>
      <point x="350" y="0" type="line"/>
      <point x="580" y="0" type="line"/>
    </contour>
  </outline>
</glyph>
<glyph name="X" format="1">
  <advance width="612"/>
  <unicode hex="0058"/>
  <outline>
    <contour>
      <point x="33" y="700" type="line"/>
      <point x="177" y="360" type="line"/>
      <point x="177" y="342" type="line"/>
      <point x="33" y="0" type="line"/>
      <point x="176" y="0" type="line"/>
      <point x="294" y="288" type="line"/>
      <point x="318" y="288" type="line"/>
      <point x="436" y="0" type="line"/>
      <point x="579" y="0" type="line"/>
      <point x="435" y="342" type="line"/>
      <point x="435" y="360" type="line"/>
      <point x="579" y="700" type="line"/>
      <point x="436" y="700" type="line"/>
      <point x="318" y="414" type="line"/>
      <point x="294" y="414" type="line"/>
      <point x="176" y="700" type="line"/>
    </contour>
  </outline>
</glyph>
<glyph name="b" format="1">
  <advance width="612"/>
  <unicode hex="0062"/>
  <outline>
    <contour>
      <point x="183" y="72" type="line"/>
      <point x="201" y="72" type="line"/>
      <point x="224" y="28"/>
      <point x="266" y="-14"/>
      <point x="356" y="-14" type="curve" smooth="yes"/>
      <point x="478" y="-14"/>
      <point x="573" y="76"/>
      <point x="573" y="239" type="curve" smooth="yes"/>
      <point x="573" y="257" type="line" smooth="yes"/>
      <point x="573" y="416"/>
      <point x="473" y="510"/>
      <point x="356" y="510" type="curve" smooth="yes"/>
      <point x="278" y="510"/>
      <point x="228" y="478"/>
      <point x="201" y="424" type="curve"/>
      <point x="183" y="424" type="line"/>
      <point x="183" y="700" type="line"/>
      <point x="57" y="700" type="line"/>
      <point x="57" y="0" type="line"/>
      <point x="183" y="0" type="line"/>
    </contour>
    <contour>
      <point x="315" y="106" type="curve"/>
      <point x="237" y="106"/>
      <point x="183" y="161"/>
      <point x="183" y="242" type="curve" smooth="yes"/>
      <point x="183" y="254" type="line" smooth="yes"/>
      <point x="183" y="335"/>
      <point x="237" y="390"/>
      <point x="315" y="390" type="curve" smooth="yes"/>
      <point x="393" y="390"/>
      <point x="447" y="337"/>
      <point x="447" y="254" type="curve" smooth="yes"/>
      <point x="447" y="242" type="line" smooth="yes"/>
      <point x="447" y="159"/>
      <point x="393" y="106"/>
    </contour>
  </outline>
</glyph>
<glyph name="d" format="1">
  <advance width="612"/>
  <unicode hex="0064"/>
  <outline>
    <contour>
      <point x="434" y="0" type="line"/>
      <point x="560" y="0" type="line"/>
      <point x="560" y="700" type="line"/>
      <point x="434" y="700" type="line"/>
      <point x="434" y="424" type="line"/>
      <point x="416" y="424" type="line"/>
      <point x="390" y="478"/>
      <point x="346" y="510"/>
      <point x="266" y="510" type="curve" smooth="yes"/>
      <point x="145" y="510"/>
      <point x="44" y="416"/>
      <point x="44" y="257" type="curve" smooth="yes"/>
      <point x="44" y="239" type="line" smooth="yes"/>
      <point x="44" y="76"/>
      <point x="139" y="-14"/>
      <point x="261" y="-14" type="curve" smooth="yes"/>
      <point x="356" y="-14"/>
      <point x="396" y="28"/>
      <point x="416" y="72" type="curve"/>
      <point x="434" y="72" type="line"/>
    </contour>
    <contour>
      <point x="302" y="106" type="curve" smooth="yes"/>
      <point x="224" y="106"/>
      <point x="170" y="159"/>
      <point x="170" y="242" type="curve" smooth="yes"/>
      <point x="170" y="254" type="line" smooth="yes"/>
      <point x="170" y="337"/>
      <point x="224" y="390"/>
      <point x="302" y="390" type="curve" smooth="yes"/>
      <point x="380" y="390"/>
      <point x="434" y="335"/>
      <point x="434" y="254" type="curve" smooth="yes"/>
      <point x="434" y="242" type="line" smooth="yes"/>
      <point x="434" y="161"/>
      <point x="380" y="106"/>
    </contour>
  </outline>
</glyph>
<glyph name="i" format="1">
  <advance width="612"/>
  <unicode hex="0069"/>
  <outline>
    <contour>
      <point x="87" y="0" type="line"/>
      <point x="525" y="0" type="line"/>
      <point x="525" y="120" type="line"/>
      <point x="381" y="120" type="line"/>
      <point x="381" y="496" type="line"/>
      <point x="99" y="496" type="line"/>
      <point x="99" y="376" type="line"/>
      <point x="255" y="376" type="line"/>
      <point x="255" y="120" type="line"/>
      <point x="87" y="120" type="line"/>
    </contour>
    <contour>
      <point x="412" y="643" type="curve" smooth="yes"/>
      <point x="412" y="696"/>
      <point x="369" y="738"/>
      <point x="317" y="738" type="curve" smooth="yes"/>
      <point x="265" y="738"/>
      <point x="222" y="696"/>
      <point x="222" y="643" type="curve" smooth="yes"/>
      <point x="222" y="590"/>
      <point x="265" y="548"/>
      <point x="317" y="548" type="curve" smooth="yes"/>
      <point x="369" y="548"/>
      <point x="412" y="590"/>
    </contour>
  </outline>
</glyph>
<glyph name="j" format="1">
  <advance width="612"/>
  <unicode hex="006A"/>
  <outline>
    <contour>
      <point x="126" y="376" type="line"/>
      <point x="318" y="376" type="line"/>
      <point x="318" y="-47" type="line" smooth="yes"/>
      <point x="318" y="-68"/>
      <point x="309" y="-80"/>
      <point x="288" y="-80" type="curve" smooth="yes"/>
      <point x="108" y="-80" type="line"/>
      <point x="108" y="-200" type="line"/>
      <point x="343" y="-200" type="line" smooth="yes"/>
      <point x="403" y="-200"/>
      <point x="444" y="-167"/>
      <point x="444" y="-98" type="curve" smooth="yes"/>
      <point x="444" y="496" type="line"/>
      <point x="126" y="496" type="line"/>
    </contour>
    <contour>
      <point x="474" y="643" type="curve" smooth="yes"/>
      <point x="474" y="696"/>
      <point x="431" y="738"/>
      <point x="379" y="738" type="curve" smooth="yes"/>
      <point x="327" y="738"/>
      <point x="284" y="696"/>
      <point x="284" y="643" type="curve" smooth="yes"/>
      <point x="284" y="590"/>
      <point x="327" y="548"/>
      <point x="379" y="548" type="curve" smooth="yes"/>
      <point x="431" y="548"/>
      <point x="474" y="590"/>
    </contour>
  </outline>
</glyph>
<glyph name="l" format="1">
  <advance width="612"/>
  <unicode hex="006C"/>
  <outline>
    <contour>
      <point x="75" y="0" type="line"/>
      <point x="537" y="0" type="line"/>
      <point x="537" y="120" type="line"/>
      <point x="375" y="120" type="line"/>
      <point x="375" y="700" type="line"/>
      <point x="81" y="700" type="line"/>
      <point x="81" y="580" type="line"/>
      <point x="249" y="580" type="line"/>
      <point x="249" y="120" type="line"/>
      <point x="75" y="120" type="line"/>
    </contour>
  </outline>
</glyph>
<glyph name="p" format="1">
  <advance width="612"/>
  <unicode hex="0070"/>
  <outline>
    <contour>
      <point x="178" y="72" type="line"/>
      <point x="196" y="72" type="line"/>
      <point x="219" y="28"/>
      <point x="261" y="-14"/>
      <point x="351" y="-14" type="curve" smooth="yes"/>
      <point x="473" y="-14"/>
      <point x="568" y="76"/>
      <point x="568" y="239" type="curve" smooth="yes"/>
      <point x="568" y="257" type="line" smooth="yes"/>
      <point x="568" y="416"/>
      <point x="468" y="510"/>
      <point x="351" y="510" type="curve" smooth="yes"/>
      <point x="273" y="510"/>
      <point x="223" y="478"/>
      <point x="196" y="424" type="curve"/>
      <point x="178" y="424" type="line"/>
      <point x="178" y="496" type="line"/>
      <point x="52" y="496" type="line"/>
      <point x="52" y="-200" type="line"/>
      <point x="178" y="-200" type="line"/>
    </contour>
    <contour>
      <point x="310" y="106" type="curve" smooth="yes"/>
      <point x="232" y="106"/>
      <point x="178" y="161"/>
      <point x="178" y="242" type="curve" smooth="yes"/>
      <point x="178" y="254" type="line" smooth="yes"/>
      <point x="178" y="335"/>
      <point x="232" y="390"/>
      <point x="310" y="390" type="curve" smooth="yes"/>
      <point x="388" y="390"/>
      <point x="442" y="337"/>
      <point x="442" y="254" type="curve" smooth="yes"/>
      <point x="442" y="242" type="line" smooth="yes"/>
      <point x="442" y="159"/>
      <point x="388" y="106"/>
    </contour>
  </outline>
</glyph>
<glyph name="r" format="1">
  <advance width="612"/>
  <unicode hex="0072"/>
  <outline>
    <contour>
      <point x="54" y="376" type="line"/>
      <point x="144" y="376" type="line"/>
      <point x="144" y="120" type="line"/>
      <point x="42" y="120" type="line"/>
      <point x="42" y="0" type="line"/>
      <point x="384" y="0" type="line"/>
      <point x="384" y="120" type="line"/>
      <point x="270" y="120" type="line"/>
      <point x="270" y="280" type="line" smooth="yes"/>
      <point x="270" y="352"/>
      <point x="304" y="392"/>
      <point x="360" y="392" type="curve" smooth="yes"/>
      <point x="416" y="392"/>
      <point x="444" y="356"/>
      <point x="444" y="302" type="curve" smooth="yes"/>
      <point x="444" y="288" type="line"/>
      <point x="574" y="300" type="line"/>
      <point x="574" y="322" type="line" smooth="yes"/>
      <point x="574" y="448"/>
      <point x="508" y="510"/>
      <point x="410" y="510" type="curve" smooth="yes"/>
      <point x="348" y="510"/>
      <point x="300" y="478"/>
      <point x="282" y="424" type="curve"/>
      <point x="264" y="424" type="line"/>
      <point x="264" y="496" type="line"/>
      <point x="54" y="496" type="line"/>
    </contour>
  </outline>
</glyph>
<glyph name="w" format="1">
  <advance width="612"/>
  <unicode hex="0077"/>
  <outline>
    <contour>
      <point x="597" y="496" type="line"/>
      <point x="481" y="496" type="line"/>
      <point x="459" y="120" type="line"/>
      <point x="459" y="60" type="line"/>
      <point x="435" y="60" type="line"/>
      <point x="435" y="120" type="line"/>
      <point x="410" y="496" type="line"/>
      <point x="202" y="496" type="line"/>
      <point x="177" y="120" type="line"/>
      <point x="177" y="60" type="line"/>
      <point x="153" y="60" type="line"/>
      <point x="153" y="120" type="line"/>
      <point x="131" y="496" type="line"/>
      <point x="15" y="496" type="line"/>
      <point x="48" y="0" type="line"/>
      <point x="266" y="0" type="line"/>
      <point x="294" y="376" type="line"/>
      <point x="294" y="436" type="line"/>
      <point x="318" y="436" type="line"/>
      <point x="318" y="376" type="line"/>
      <point x="346" y="0" type="line"/>
      <point x="564" y="0" type="line"/>
    </contour>
  </outline>
</glyph>
<glyph name="x" format="1">
  <advance width="612"/>
  <unicode hex="0078"/>
  <outline>
    <contour>
      <point x="315" y="314" type="line"/>
      <point x="297" y="314" type="line"/>
      <point x="205" y="496" type="line"/>
      <point x="65" y="496" type="line"/>
      <point x="186" y="263" type="line"/>
      <point x="186" y="245" type="line"/>
      <point x="59" y="0" type="line"/>
      <point x="204" y="0" type="line"/>
      <point x="297" y="194" type="line"/>
      <point x="315" y="194" type="line"/>
      <point x="408" y="0" type="line"/>
      <point x="553" y="0" type="line"/>
      <point x="426" y="245" type="line"/>
      <point x="426" y="263" type="line"/>
      <point x="546" y="496" type="line"/>
      <point x="407" y="496" type="line"/>
    </contour>
  </outline>
</glyph>
<glyph name="y" format="1">
  <advance width="612"/>
  <unicode hex="0079"/>
  <outline>
    <contour>
      <point x="414" y="236" type="line" smooth="yes"/>
      <point x="414" y="152"/>
      <point x="380" y="100"/>
      <point x="304" y="100" type="curve" smooth="yes"/>
      <point x="238" y="100"/>
      <point x="204" y="142"/>
      <point x="204" y="212" type="curve" smooth="yes"/>
      <point x="204" y="496" type="line"/>
      <point x="78" y="496" type="line"/>
      <point x="78" y="186" type="line" smooth="yes"/>
      <point x="78" y="50"/>
      <point x="156" y="-14"/>
      <point x="254" y="-14" type="curve" smooth="yes"/>
      <point x="328" y="-14"/>
      <point x="374" y="14"/>
      <point x="396" y="72" type="curve"/>
      <point x="414" y="72" type="line"/>
      <point x="414" y="-50" type="line" smooth="yes"/>
      <point x="414" y="-69"/>
      <point x="406" y="-80"/>
      <point x="387" y="-80" type="curve" smooth="yes"/>
      <point x="168" y="-80" type="line"/>
      <point x="168" y="-200" type="line"/>
      <point x="463" y="-200" type="line" smooth="yes"/>
      <point x="508" y="-200"/>
      <point x="540" y="-167"/>
      <point x="540" y="-122" type="curve" smooth="yes"/>
      <point x="540" y="496" type="line"/>
      <point x="414" y="496" type="line"/>
    </contour>
  </outline>
</glyph>
<glyph name="z" format="1">
  <advance width="612"/>
  <unicode hex="007A"/>
  <outline>
    <contour>
      <point x="199" y="120" type="line"/>
      <point x="199" y="138" type="line"/>
      <point x="511" y="292" type="line"/>
      <point x="511" y="496" type="line"/>
      <point x="97" y="496" type="line"/>
      <point x="97" y="380" type="line"/>
      <point x="403" y="380" type="line"/>
      <point x="403" y="362" type="line"/>
      <point x="91" y="210" type="line"/>
      <point x="91" y="0" type="line"/>
      <point x="523" y="0" type="line"/>
      <point x="523" y="120" type="line"/>
    </contour>
  </outline>
</glyph>
<glyph name="braceleft" format="1">
  <advance width="612"/>
  <unicode hex="007B"/>
  <outline>
    <contour>
      <point x="256" y="451" type="line" smooth="yes"/>
      <point x="256" y="432"/>
      <point x="248" y="422"/>
      <point x="229" y="422" type="curve" smooth="yes"/>
      <point x="166" y="422" type="line"/>
      <point x="166" y="278" type="line"/>
      <point x="229" y="278" type="line" smooth="yes"/>
      <point x="248" y="278"/>
      <point x="256" y="268"/>
      <point x="256" y="249" type="curve" smooth="yes"/>
      <point x="256" y="-54" type="line" smooth="yes"/>
      <point x="256" y="-114"/>
      <point x="298" y="-156"/>
      <point x="358" y="-156" type="curve" smooth="yes"/>
      <point x="490" y="-156" type="line"/>
      <point x="490" y="-36" type="line"/>
      <point x="409" y="-36" type="line" smooth="yes"/>
      <point x="390" y="-36"/>
      <point x="382" y="-25"/>
      <point x="382" y="-6" type="curve" smooth="yes"/>
      <point x="382" y="263" type="line" smooth="yes"/>
      <point x="382" y="308"/>
      <point x="351" y="341"/>
      <point x="304" y="341" type="curve" smooth="yes"/>
      <point x="298" y="341" type="line"/>
      <point x="298" y="359" type="line"/>
      <point x="304" y="359" type="line" smooth="yes"/>
      <point x="351" y="359"/>
      <point x="382" y="392"/>
      <point x="382" y="437" type="curve" smooth="yes"/>
      <point x="382" y="706" type="line" smooth="yes"/>
      <point x="382" y="725"/>
      <point x="390" y="736"/>
      <point x="409" y="736" type="curve" smooth="yes"/>
      <point x="490" y="736" type="line"/>
      <point x="490" y="856" type="line"/>
      <point x="358" y="856" type="line" smooth="yes"/>
      <point x="298" y="856"/>
      <point x="256" y="814"/>
      <point x="256" y="754" type="curve" smooth="yes"/>
    </contour>
  </outline>
</glyph>
<glyph name="currency" format="1">
  <advance width="612"/>
  <unicode hex="00A4"/>
  <outline>
    <contour>
      <point x="56" y="350" type="curve" smooth="yes"/>
      <point x="56" y="300"/>
      <point x="70" y="255"/>
      <point x="95" y="216" type="curve"/>
      <point x="34" y="155" type="line"/>
      <point x="111" y="78" type="line"/>
      <point x="172" y="139" type="line"/>
      <point x="211" y="114"/>
      <point x="256" y="100"/>
      <point x="306" y="100" type="curve" smooth="yes"/>
      <point x="355" y="100"/>
      <point x="401" y="114"/>
      <point x="440" y="139" type="curve"/>
      <point x="501" y="78" type="line"/>
      <point x="578" y="155" type="line"/>
      <point x="517" y="216" type="line"/>
      <point x="541" y="255"/>
      <point x="556" y="300"/>
      <point x="556" y="350" type="curve" smooth="yes"/>
      <point x="556" y="399"/>
      <point x="541" y="445"/>
      <point x="517" y="484" type="curve"/>
      <point x="578" y="545" type="line"/>
      <point x="501" y="622" type="line"/>
      <point x="440" y="561" type="line"/>
      <point x="401" y="585"/>
      <point x="355" y="600"/>
      <point x="306" y="600" type="curve" smooth="yes"/>
      <point x="256" y="600"/>
      <point x="211" y="585"/>
      <point x="172" y="561" type="curve"/>
      <point x="111" y="622" type="line"/>
      <point x="34" y="545" type="line"/>
      <point x="95" y="484" type="line"/>
      <point x="70" y="445"/>
      <point x="56" y="399"/>
    </contour>
    <contour>
      <point x="164" y="350" type="curve" smooth="yes"/>
      <point x="164" y="430"/>
      <point x="226" y="492"/>
      <point x="306" y="492" type="curve" smooth="yes"/>
      <point x="386" y="492"/>
      <point x="448" y="430"/>
      <point x="448" y="350" type="curve" smooth="yes"/>
      <point x="448" y="270"/>
      <point x="386" y="208"/>
      <point x="306" y="208" type="curve" smooth="yes"/>
      <point x="226" y="208"/>
      <point x="164" y="270"/>
    </contour>
  </outline>
</glyph>
<glyph name="copyright" format="1">
  <advance width="612"/>
  <unicode hex="00A9"/>
  <outline>
    <contour>
      <point x="305" y="634" type="curve"/>
      <point x="328" y="634"/>
      <point x="337" y="618"/>
      <point x="337" y="602" type="curve" smooth="yes"/>
      <point x="337" y="586" type="line"/>
      <point x="415" y="586" type="line"/>
      <point x="415" y="602" type="line" smooth="yes"/>
      <point x="415" y="663"/>
      <point x="372" y="706"/>
      <point x="305" y="706" type="curve" smooth="yes"/>
      <point x="239" y="706"/>
      <point x="195" y="663"/>
      <point x="195" y="602" type="curve" smooth="yes"/>
      <point x="195" y="510" type="line" smooth="yes"/>
      <point x="195" y="449"/>
      <point x="240" y="406"/>
      <point x="305" y="406" type="curve" smooth="yes"/>
      <point x="372" y="406"/>
      <point x="415" y="449"/>
      <point x="415" y="510" type="curve" smooth="yes"/>
      <point x="415" y="526" type="line"/>
      <point x="337" y="526" type="line"/>
      <point x="337" y="510" type="line" smooth="yes"/>
      <point x="337" y="494"/>
      <point x="328" y="478"/>
      <point x="305" y="478" type="curve" smooth="yes"/>
      <point x="282" y="478"/>
      <point x="273" y="494"/>
      <point x="273" y="510" type="curve" smooth="yes"/>
      <point x="273" y="602" type="line" smooth="yes"/>
      <point x="273" y="618"/>
      <point x="282" y="634"/>
    </contour>
    <contour>
      <point x="28" y="556" type="curve" smooth="yes"/>
      <point x="28" y="403"/>
      <point x="153" y="278"/>
      <point x="306" y="278" type="curve" smooth="yes"/>
      <point x="459" y="278"/>
      <point x="584" y="403"/>
      <point x="584" y="556" type="curve" smooth="yes"/>
      <point x="584" y="709"/>
      <point x="459" y="834"/>
      <point x="306" y="834" type="curve" smooth="yes"/>
      <point x="153" y="834"/>
      <point x="28" y="709"/>
    </contour>
    <contour>
      <point x="106" y="556" type="curve" smooth="yes"/>
      <point x="106" y="667"/>
      <point x="195" y="756"/>
      <point x="306" y="756" type="curve" smooth="yes"/>
      <point x="417" y="756"/>
      <point x="506" y="667"/>
      <point x="506" y="556" type="curve" smooth="yes"/>
      <point x="506" y="445"/>
      <point x="417" y="356"/>
      <point x="306" y="356" type="curve" smooth="yes"/>
      <point x="195" y="356"/>
      <point x="106" y="445"/>
    </contour>
  </outline>
</glyph>
<glyph name="degree" format="1">
  <advance width="612"/>
  <unicode hex="00B0"/>
  <outline>
    <contour>
      <point x="149" y="569" type="curve" smooth="yes"/>
      <point x="149" y="482"/>
      <point x="219" y="412"/>
      <point x="306" y="412" type="curve" smooth="yes"/>
      <point x="393" y="412"/>
      <point x="463" y="482"/>
      <point x="463" y="569" type="curve" smooth="yes"/>
      <point x="463" y="656"/>
      <point x="393" y="726"/>
      <point x="306" y="726" type="curve" smooth="yes"/>
      <point x="219" y="726"/>
      <point x="149" y="656"/>
    </contour>
    <contour>
      <point x="257" y="569" type="curve" smooth="yes"/>
      <point x="257" y="596"/>
      <point x="279" y="618"/>
      <point x="306" y="618" type="curve" smooth="yes"/>
      <point x="333" y="618"/>
      <point x="355" y="596"/>
      <point x="355" y="569" type="curve" smooth="yes"/>
      <point x="355" y="542"/>
      <point x="333" y="520"/>
      <point x="306" y="520" type="curve" smooth="yes"/>
      <point x="279" y="520"/>
      <point x="257" y="542"/>
    </contour>
  </outline>
</glyph>
<glyph name="acute" format="1">
  <advance width="612"/>
  <unicode hex="00B4"/>
  <outline>
    <contour>
      <point x="215" y="570" type="line"/>
      <point x="317" y="570" type="line"/>
      <point x="401" y="706" type="line"/>
      <point x="267" y="706" type="line"/>
    </contour>
  </outline>
</glyph>
<glyph name="paragraph" format="1">
  <advance width="612"/>
  <unicode hex="00B6"/>
  <outline>
    <contour>
      <point x="261" y="218" type="line"/>
      <point x="369" y="218" type="line"/>
      <point x="369" y="612" type="line"/>
      <point x="399" y="612" type="line"/>
      <point x="399" y="218" type="line"/>
      <point x="507" y="218" type="line"/>
      <point x="507" y="714" type="line"/>
      <point x="249" y="714" type="line" smooth="yes"/>
      <point x="169" y="714"/>
      <point x="105" y="649"/>
      <point x="105" y="569" type="curve" smooth="yes"/>
      <point x="105" y="489"/>
      <point x="169" y="424"/>
      <point x="249" y="424" type="curve" smooth="yes"/>
      <point x="261" y="424" type="line"/>
    </contour>
    <contour>
      <point x="249" y="526" type="line"/>
      <point x="227" y="526"/>
      <point x="207" y="540"/>
      <point x="207" y="569" type="curve" smooth="yes"/>
      <point x="207" y="598"/>
      <point x="227" y="612"/>
      <point x="249" y="612" type="curve"/>
      <point x="261" y="612" type="line"/>
      <point x="261" y="526" type="line"/>
    </contour>
  </outline>
</glyph>
<glyph name="cedilla" format="1">
  <advance width="612"/>
  <unicode hex="00B8"/>
  <outline>
    <contour>
      <point x="230" y="0" type="line"/>
      <point x="210" y="-92" type="line"/>
      <point x="210" y="-104" type="line"/>
      <point x="307" y="-104" type="line"/>
      <point x="309" y="-96"/>
      <point x="316" y="-90"/>
      <point x="327" y="-90" type="curve" smooth="yes"/>
      <point x="340" y="-90"/>
      <point x="347" y="-100"/>
      <point x="347" y="-112" type="curve" smooth="yes"/>
      <point x="347" y="-128"/>
      <point x="333" y="-138"/>
      <point x="313" y="-138" type="curve" smooth="yes"/>
      <point x="295" y="-138"/>
      <point x="278" y="-133"/>
      <point x="263" y="-124" type="curve"/>
      <point x="237" y="-192" type="line"/>
      <point x="259" y="-204"/>
      <point x="283" y="-212"/>
      <point x="321" y="-212" type="curve" smooth="yes"/>
      <point x="383" y="-212"/>
      <point x="431" y="-174"/>
      <point x="431" y="-112" type="curve" smooth="yes"/>
      <point x="431" y="-64"/>
      <point x="403" y="-24"/>
      <point x="348" y="-24" type="curve" smooth="yes"/>
      <point x="323" y="-24"/>
      <point x="309" y="-34"/>
      <point x="302" y="-46" type="curve"/>
      <point x="290" y="-46" type="line"/>
      <point x="300" y="0" type="line"/>
    </contour>
  </outline>
</glyph>
<glyph name="ordmasculine" format="1">
  <advance width="612"/>
  <unicode hex="00BA"/>
  <outline>
    <contour>
      <point x="157" y="556" type="curve" smooth="yes"/>
      <point x="157" y="458"/>
      <point x="226" y="406"/>
      <point x="306" y="406" type="curve" smooth="yes"/>
      <point x="386" y="406"/>
      <point x="455" y="458"/>
      <point x="455" y="556" type="curve" smooth="yes"/>
      <point x="455" y="654"/>
      <point x="386" y="706"/>
      <point x="306" y="706" type="curve" smooth="yes"/>
      <point x="226" y="706"/>
      <point x="157" y="654"/>
    </contour>
    <contour>
      <point x="306" y="484" type="curve" smooth="yes"/>
      <point x="265" y="484"/>
      <point x="241" y="512"/>
      <point x="241" y="556" type="curve" smooth="yes"/>
      <point x="241" y="600"/>
      <point x="265" y="628"/>
      <point x="306" y="628" type="curve" smooth="yes"/>
      <point x="347" y="628"/>
      <point x="371" y="600"/>
      <point x="371" y="556" type="curve" smooth="yes"/>
      <point x="371" y="512"/>
      <point x="347" y="484"/>
    </contour>
  </outline>
</glyph>
<glyph name="Ccedilla" format="1">
  <advance width="612"/>
  <unicode hex="00C7"/>
  <outline>
    <contour>
      <point x="308" y="106" type="curve" smooth="yes"/>
      <point x="214" y="106"/>
      <point x="180" y="171"/>
      <point x="180" y="262" type="curve" smooth="yes"/>
      <point x="180" y="438" type="line" smooth="yes"/>
      <point x="180" y="522"/>
      <point x="220" y="594"/>
      <point x="308" y="594" type="curve" smooth="yes"/>
      <point x="404" y="594"/>
      <point x="432" y="520"/>
      <point x="432" y="454" type="curve" smooth="yes"/>
      <point x="432" y="436" type="line"/>
      <point x="564" y="436" type="line"/>
      <point x="564" y="454" type="line" smooth="yes"/>
      <point x="564" y="614"/>
      <point x="474" y="714"/>
      <point x="308" y="714" type="curve" smooth="yes"/>
      <point x="148" y="714"/>
      <point x="48" y="608"/>
      <point x="48" y="428" type="curve" smooth="yes"/>
      <point x="48" y="272" type="line" smooth="yes"/>
      <point x="48" y="101"/>
      <point x="132" y="3"/>
      <point x="270" y="-12" type="curve"/>
      <point x="253" y="-92" type="line"/>
      <point x="253" y="-104" type="line"/>
      <point x="350" y="-104" type="line"/>
      <point x="352" y="-96"/>
      <point x="359" y="-90"/>
      <point x="370" y="-90" type="curve" smooth="yes"/>
      <point x="383" y="-90"/>
      <point x="390" y="-100"/>
      <point x="390" y="-112" type="curve" smooth="yes"/>
      <point x="390" y="-128"/>
      <point x="376" y="-138"/>
      <point x="356" y="-138" type="curve" smooth="yes"/>
      <point x="338" y="-138"/>
      <point x="321" y="-133"/>
      <point x="306" y="-124" type="curve"/>
      <point x="280" y="-192" type="line"/>
      <point x="302" y="-204"/>
      <point x="326" y="-212"/>
      <point x="364" y="-212" type="curve" smooth="yes"/>
      <point x="426" y="-212"/>
      <point x="474" y="-174"/>
      <point x="474" y="-112" type="curve" smooth="yes"/>
      <point x="474" y="-64"/>
      <point x="446" y="-24"/>
      <point x="391" y="-24" type="curve" smooth="yes"/>
      <point x="366" y="-24"/>
      <point x="352" y="-34"/>
      <point x="345" y="-46" type="curve"/>
      <point x="333" y="-46" type="line"/>
      <point x="340" y="-13" type="line"/>
      <point x="485" y="-1"/>
      <point x="564" y="91"/>
      <point x="564" y="246" type="curve" smooth="yes"/>
      <point x="564" y="264" type="line"/>
      <point x="432" y="264" type="line"/>
      <point x="432" y="246" type="line" smooth="yes"/>
      <point x="432" y="174"/>
      <point x="410" y="106"/>
    </contour>
  </outline>
</glyph>
<glyph name="Eth" format="1">
  <advance width="612"/>
  <unicode hex="00D0"/>
  <outline>
    <contour>
      <point x="46" y="290" type="line"/>
      <point x="112" y="290" type="line"/>
      <point x="112" y="126" type="line"/>
      <point x="46" y="126" type="line"/>
      <point x="46" y="0" type="line"/>
      <point x="300" y="0" type="line" smooth="yes"/>
      <point x="472" y="0"/>
      <point x="556" y="80"/>
      <point x="556" y="248" type="curve" smooth="yes"/>
      <point x="556" y="452" type="line" smooth="yes"/>
      <point x="556" y="620"/>
      <point x="472" y="700"/>
      <point x="300" y="700" type="curve" smooth="yes"/>
      <point x="46" y="700" type="line"/>
      <point x="46" y="574" type="line"/>
      <point x="112" y="574" type="line"/>
      <point x="112" y="410" type="line"/>
      <point x="46" y="410" type="line"/>
    </contour>
    <contour>
      <point x="300" y="126" type="curve"/>
      <point x="244" y="126" type="line"/>
      <point x="244" y="290" type="line"/>
      <point x="342" y="290" type="line"/>
      <point x="342" y="410" type="line"/>
      <point x="244" y="410" type="line"/>
      <point x="244" y="574" type="line"/>
      <point x="300" y="574" type="line" smooth="yes"/>
      <point x="392" y="574"/>
      <point x="424" y="532"/>
      <point x="424" y="452" type="curve" smooth="yes"/>
      <point x="424" y="260" type="line" smooth="yes"/>
      <point x="424" y="168"/>
      <point x="392" y="126"/>
    </contour>
  </outline>
</glyph>
<glyph name="Oslash" format="1">
  <advance width="612"/>
  <unicode hex="00D8"/>
  <outline>
    <contour>
      <point x="48" y="272" type="line" smooth="yes"/>
      <point x="48" y="161"/>
      <point x="82" y="81"/>
      <point x="144" y="34" type="curve"/>
      <point x="114" y="-59" type="line"/>
      <point x="224" y="-93" type="line"/>
      <point x="251" y="-10" type="line"/>
      <point x="268" y="-13"/>
      <point x="286" y="-14"/>
      <point x="306" y="-14" type="curve" smooth="yes"/>
      <point x="466" y="-14"/>
      <point x="564" y="86"/>
      <point x="564" y="272" type="curve" smooth="yes"/>
      <point x="564" y="428" type="line" smooth="yes"/>
      <point x="564" y="533"/>
      <point x="530" y="612"/>
      <point x="471" y="661" type="curve"/>
      <point x="499" y="747" type="line"/>
      <point x="390" y="781" type="line"/>
      <point x="366" y="708" type="line"/>
      <point x="347" y="712"/>
      <point x="327" y="714"/>
      <point x="306" y="714" type="curve" smooth="yes"/>
      <point x="146" y="714"/>
      <point x="48" y="608"/>
      <point x="48" y="428" type="curve" smooth="yes"/>
    </contour>
    <contour>
      <point x="180" y="264" type="curve"/>
      <point x="180" y="436" type="line" smooth="yes"/>
      <point x="180" y="524"/>
      <point x="216" y="594"/>
      <point x="306" y="594" type="curve" smooth="yes"/>
      <point x="313" y="594"/>
      <point x="321" y="593"/>
      <point x="328" y="592" type="curve"/>
      <point x="192" y="179" type="line"/>
      <point x="183" y="203"/>
      <point x="180" y="231"/>
    </contour>
    <contour>
      <point x="306" y="106" type="curve"/>
      <point x="289" y="106" type="line"/>
      <point x="421" y="510" type="line"/>
      <point x="429" y="488"/>
      <point x="432" y="463"/>
      <point x="432" y="436" type="curve" smooth="yes"/>
      <point x="432" y="264" type="line" smooth="yes"/>
      <point x="432" y="170"/>
      <point x="402" y="106"/>
    </contour>
  </outline>
</glyph>
<glyph name="Thorn" format="1">
  <advance width="612"/>
  <unicode hex="00DE"/>
  <outline>
    <contour>
      <point x="344" y="132" type="line" smooth="yes"/>
      <point x="487" y="132"/>
      <point x="558" y="237"/>
      <point x="558" y="341" type="curve" smooth="yes"/>
      <point x="558" y="365" type="line" smooth="yes"/>
      <point x="558" y="466"/>
      <point x="487" y="568"/>
      <point x="344" y="568" type="curve" smooth="yes"/>
      <point x="202" y="568" type="line"/>
      <point x="202" y="700" type="line"/>
      <point x="70" y="700" type="line"/>
      <point x="70" y="0" type="line"/>
      <point x="202" y="0" type="line"/>
      <point x="202" y="132" type="line"/>
    </contour>
    <contour>
      <point x="202" y="442" type="line"/>
      <point x="331" y="442" type="line" smooth="yes"/>
      <point x="389" y="442"/>
      <point x="426" y="407"/>
      <point x="426" y="356" type="curve" smooth="yes"/>
      <point x="426" y="344" type="line" smooth="yes"/>
      <point x="426" y="293"/>
      <point x="389" y="258"/>
      <point x="331" y="258" type="curve" smooth="yes"/>
      <point x="202" y="258" type="line"/>
    </contour>
  </outline>
</glyph>
<glyph name="ae" format="1">
  <advance width="612"/>
  <unicode hex="00E6"/>
  <outline>
    <contour>
      <point x="182" y="147" type="curve" smooth="yes"/>
      <point x="182" y="174"/>
      <point x="202" y="188"/>
      <point x="228" y="188" type="curve" smooth="yes"/>
      <point x="240" y="188" type="line"/>
      <point x="240" y="106" type="line"/>
      <point x="228" y="106" type="line" smooth="yes"/>
      <point x="202" y="106"/>
      <point x="182" y="120"/>
    </contour>
    <contour>
      <point x="432" y="308" type="curve"/>
      <point x="366" y="308" type="line"/>
      <point x="366" y="386" type="line"/>
      <point x="406" y="380"/>
      <point x="432" y="352"/>
    </contour>
    <contour>
      <point x="298" y="510" type="curve" smooth="yes"/>
      <point x="199" y="510"/>
      <point x="132" y="480"/>
      <point x="88" y="424" type="curve"/>
      <point x="170" y="338" type="line"/>
      <point x="184" y="364"/>
      <point x="214" y="386"/>
      <point x="240" y="386" type="curve"/>
      <point x="240" y="308" type="line"/>
      <point x="230" y="308" type="line" smooth="yes"/>
      <point x="136" y="308"/>
      <point x="56" y="252"/>
      <point x="56" y="158" type="curve" smooth="yes"/>
      <point x="56" y="146" type="line" smooth="yes"/>
      <point x="56" y="34"/>
      <point x="154" y="-14"/>
      <point x="284" y="-14" type="curve" smooth="yes"/>
      <point x="313" y="-14" type="line" smooth="yes"/>
      <point x="426" y="-14"/>
      <point x="500" y="16"/>
      <point x="540" y="88" type="curve"/>
      <point x="438" y="152" type="line"/>
      <point x="426" y="124"/>
      <point x="398" y="110"/>
      <point x="366" y="110" type="curve"/>
      <point x="366" y="188" type="line"/>
      <point x="558" y="188" type="line"/>
      <point x="558" y="272" type="line" smooth="yes"/>
      <point x="558" y="408"/>
      <point x="464" y="510"/>
    </contour>
  </outline>
</glyph>
<glyph name="ccedilla" format="1">
  <advance width="612"/>
  <unicode hex="00E7"/>
  <outline>
    <contour>
      <point x="438" y="213" type="line"/>
      <point x="426" y="148"/>
      <point x="387" y="106"/>
      <point x="310" y="106" type="curve" smooth="yes"/>
      <point x="238" y="106"/>
      <point x="178" y="152"/>
      <point x="178" y="241" type="curve" smooth="yes"/>
      <point x="178" y="247" type="line" smooth="yes"/>
      <point x="178" y="336"/>
      <point x="238" y="390"/>
      <point x="310" y="390" type="curve" smooth="yes"/>
      <point x="387" y="390"/>
      <point x="430" y="341"/>
      <point x="438" y="282" type="curve"/>
      <point x="562" y="314" type="line"/>
      <point x="540" y="431"/>
      <point x="450" y="510"/>
      <point x="312" y="510" type="curve" smooth="yes"/>
      <point x="167" y="510"/>
      <point x="52" y="410"/>
      <point x="52" y="250" type="curve" smooth="yes"/>
      <point x="52" y="238" type="line" smooth="yes"/>
      <point x="52" y="93"/>
      <point x="145" y="4"/>
      <point x="271" y="-11" type="curve"/>
      <point x="254" y="-92" type="line"/>
      <point x="254" y="-104" type="line"/>
      <point x="351" y="-104" type="line"/>
      <point x="353" y="-96"/>
      <point x="360" y="-90"/>
      <point x="371" y="-90" type="curve" smooth="yes"/>
      <point x="384" y="-90"/>
      <point x="391" y="-100"/>
      <point x="391" y="-112" type="curve" smooth="yes"/>
      <point x="391" y="-128"/>
      <point x="377" y="-138"/>
      <point x="357" y="-138" type="curve" smooth="yes"/>
      <point x="339" y="-138"/>
      <point x="322" y="-133"/>
      <point x="307" y="-124" type="curve"/>
      <point x="281" y="-192" type="line"/>
      <point x="303" y="-204"/>
      <point x="327" y="-212"/>
      <point x="365" y="-212" type="curve" smooth="yes"/>
      <point x="427" y="-212"/>
      <point x="475" y="-174"/>
      <point x="475" y="-112" type="curve" smooth="yes"/>
      <point x="475" y="-64"/>
      <point x="447" y="-24"/>
      <point x="392" y="-24" type="curve" smooth="yes"/>
      <point x="367" y="-24"/>
      <point x="353" y="-34"/>
      <point x="346" y="-46" type="curve"/>
      <point x="334" y="-46" type="line"/>
      <point x="341" y="-12" type="line"/>
      <point x="465" y="-2"/>
      <point x="541" y="73"/>
      <point x="562" y="182" type="curve"/>
    </contour>
  </outline>
</glyph>
<glyph name="divide" format="1">
  <advance width="612"/>
  <unicode hex="00F7"/>
  <outline>
    <contour>
      <point x="97" y="293" type="line"/>
      <point x="515" y="293" type="line"/>
      <point x="515" y="407" type="line"/>
      <point x="97" y="407" type="line"/>
    </contour>
    <contour>
      <point x="392" y="159" type="curve" smooth="yes"/>
      <point x="392" y="207"/>
      <point x="353" y="245"/>
      <point x="306" y="245" type="curve" smooth="yes"/>
      <point x="259" y="245"/>
      <point x="220" y="207"/>
      <point x="220" y="159" type="curve" smooth="yes"/>
      <point x="220" y="111"/>
      <point x="259" y="73"/>
      <point x="306" y="73" type="curve" smooth="yes"/>
      <point x="353" y="73"/>
      <point x="392" y="111"/>
    </contour>
    <contour>
      <point x="392" y="541" type="curve" smooth="yes"/>
      <point x="392" y="589"/>
      <point x="353" y="627"/>
      <point x="306" y="627" type="curve" smooth="yes"/>
      <point x="259" y="627"/>
      <point x="220" y="589"/>
      <point x="220" y="541" type="curve" smooth="yes"/>
      <point x="220" y="493"/>
      <point x="259" y="455"/>
      <point x="306" y="455" type="curve" smooth="yes"/>
      <point x="353" y="455"/>
      <point x="392" y="493"/>
    </contour>
  </outline>
</glyph>
<glyph name="dcaron" format="1">
  <advance width="612"/>
  <unicode hex="010F"/>
  <outline>
    <contour>
      <point x="270" y="0" type="line"/>
      <point x="396" y="0" type="line"/>
      <point x="396" y="700" type="line"/>
      <point x="270" y="700" type="line"/>
      <point x="270" y="454" type="line"/>
      <point x="252" y="454" type="line"/>
      <point x="244" y="486"/>
      <point x="208" y="510"/>
      <point x="164" y="510" type="curve" smooth="yes"/>
      <point x="74" y="510"/>
      <point x="18" y="441"/>
      <point x="18" y="269" type="curve" smooth="yes"/>
      <point x="18" y="235" type="line" smooth="yes"/>
      <point x="18" y="69"/>
      <point x="64" y="-14"/>
      <point x="164" y="-14" type="curve" smooth="yes"/>
      <point x="210" y="-14"/>
      <point x="242" y="4"/>
      <point x="252" y="40" type="curve"/>
      <point x="270" y="40" type="line"/>
    </contour>
    <contour>
      <point x="209" y="390" type="curve" smooth="yes"/>
      <point x="251" y="390"/>
      <point x="270" y="356"/>
      <point x="270" y="302" type="curve" smooth="yes"/>
      <point x="270" y="194" type="line" smooth="yes"/>
      <point x="270" y="140"/>
      <point x="251" y="106"/>
      <point x="209" y="106" type="curve" smooth="yes"/>
      <point x="163" y="106"/>
      <point x="144" y="146"/>
      <point x="144" y="233" type="curve" smooth="yes"/>
      <point x="144" y="263" type="line" smooth="yes"/>
      <point x="144" y="350"/>
      <point x="163" y="390"/>
    </contour>
    <contour>
      <point x="600" y="613" type="line" smooth="yes"/>
      <point x="600" y="660"/>
      <point x="560" y="700"/>
      <point x="513" y="700" type="curve" smooth="yes"/>
      <point x="466" y="700"/>
      <point x="426" y="660"/>
      <point x="426" y="613" type="curve" smooth="yes"/>
      <point x="426" y="566"/>
      <point x="466" y="526"/>
      <point x="513" y="526" type="curve" smooth="yes"/>
      <point x="522" y="526" type="line"/>
      <point x="522" y="514" type="line" smooth="yes"/>
      <point x="522" y="495"/>
      <point x="514" y="484"/>
      <point x="495" y="484" type="curve" smooth="yes"/>
      <point x="450" y="484" type="line"/>
      <point x="450" y="406" type="line"/>
      <point x="510" y="406" type="line" smooth="yes"/>
      <point x="561" y="406"/>
      <point x="600" y="445"/>
      <point x="600" y="496" type="curve" smooth="yes"/>
    </contour>
  </outline>
</glyph>
<glyph name="uni0122" format="1">
  <advance width="612"/>
  <unicode hex="0122"/>
  <outline>
    <contour>
      <point x="361" y="-131" type="line" smooth="yes"/>
      <point x="361" y="-84"/>
      <point x="321" y="-44"/>
      <point x="274" y="-44" type="curve" smooth="yes"/>
      <point x="227" y="-44"/>
      <point x="187" y="-84"/>
      <point x="187" y="-131" type="curve" smooth="yes"/>
      <point x="187" y="-178"/>
      <point x="227" y="-218"/>
      <point x="274" y="-218" type="curve" smooth="yes"/>
      <point x="283" y="-218" type="line"/>
      <point x="283" y="-230" type="line" smooth="yes"/>
      <point x="283" y="-249"/>
      <point x="275" y="-260"/>
      <point x="256" y="-260" type="curve" smooth="yes"/>
      <point x="211" y="-260" type="line"/>
      <point x="211" y="-338" type="line"/>
      <point x="271" y="-338" type="line" smooth="yes"/>
      <point x="322" y="-338"/>
      <point x="361" y="-299"/>
      <point x="361" y="-248" type="curve" smooth="yes"/>
    </contour>
    <component base="G"/>
  </outline>
</glyph>
<glyph name="uni0123" format="1">
  <advance width="612"/>
  <unicode hex="0123"/>
  <outline>
    <contour>
      <point x="177" y="661" type="line"/>
      <point x="177" y="614"/>
      <point x="217" y="574"/>
      <point x="264" y="574" type="curve" smooth="yes"/>
      <point x="311" y="574"/>
      <point x="351" y="614"/>
      <point x="351" y="661" type="curve" smooth="yes"/>
      <point x="351" y="708"/>
      <point x="311" y="748"/>
      <point x="264" y="748" type="curve" smooth="yes"/>
      <point x="255" y="748" type="line"/>
      <point x="255" y="760" type="line" smooth="yes"/>
      <point x="255" y="779"/>
      <point x="263" y="790"/>
      <point x="282" y="790" type="curve" smooth="yes"/>
      <point x="327" y="790" type="line"/>
      <point x="327" y="868" type="line"/>
      <point x="267" y="868" type="line" smooth="yes"/>
      <point x="216" y="868"/>
      <point x="177" y="829"/>
      <point x="177" y="778" type="curve"/>
    </contour>
    <component base="g"/>
  </outline>
</glyph>
<glyph name="hbar" format="1">
  <advance width="612"/>
  <unicode hex="0127"/>
  <outline>
    <contour>
      <point x="206" y="258" type="line" smooth="yes"/>
      <point x="206" y="342"/>
      <point x="243" y="396"/>
      <point x="317" y="396" type="curve" smooth="yes"/>
      <point x="381" y="396"/>
      <point x="416" y="352"/>
      <point x="416" y="282" type="curve" smooth="yes"/>
      <point x="416" y="0" type="line"/>
      <point x="542" y="0" type="line"/>
      <point x="542" y="312" type="line" smooth="yes"/>
      <point x="542" y="448"/>
      <point x="469" y="510"/>
      <point x="371" y="510" type="curve" smooth="yes"/>
      <point x="299" y="510"/>
      <point x="249" y="476"/>
      <point x="224" y="416" type="curve"/>
      <point x="206" y="416" type="line"/>
      <point x="206" y="538" type="line"/>
      <point x="362" y="538" type="line"/>
      <point x="362" y="652" type="line"/>
      <point x="206" y="652" type="line"/>
      <point x="206" y="700" type="line"/>
      <point x="80" y="700" type="line"/>
      <point x="80" y="652" type="line"/>
      <point x="20" y="652" type="line"/>
      <point x="20" y="538" type="line"/>
      <point x="80" y="538" type="line"/>
      <point x="80" y="0" type="line"/>
      <point x="206" y="0" type="line"/>
    </contour>
  </outline>
</glyph>
<glyph name="Iogonek" format="1">
  <advance width="612"/>
  <unicode hex="012E"/>
  <outline>
    <contour>
      <point x="72" y="574" type="line"/>
      <point x="240" y="574" type="line"/>
      <point x="240" y="126" type="line"/>
      <point x="72" y="126" type="line"/>
      <point x="72" y="0" type="line"/>
      <point x="454" y="0" type="line"/>
      <point x="438" y="-72" type="line" smooth="yes"/>
      <point x="436" y="-81"/>
      <point x="435" y="-88"/>
      <point x="435" y="-95" type="curve" smooth="yes"/>
      <point x="435" y="-144"/>
      <point x="475" y="-170"/>
      <point x="515" y="-170" type="curve" smooth="yes"/>
      <point x="595" y="-170" type="line"/>
      <point x="595" y="-86" type="line"/>
      <point x="549" y="-86" type="line" smooth="yes"/>
      <point x="535" y="-86"/>
      <point x="526" y="-78"/>
      <point x="526" y="-64" type="curve" smooth="yes"/>
      <point x="526" y="-62"/>
      <point x="526" y="-61"/>
      <point x="527" y="-56" type="curve" smooth="yes"/>
      <point x="540" y="0" type="line"/>
      <point x="540" y="126" type="line"/>
      <point x="372" y="126" type="line"/>
      <point x="372" y="574" type="line"/>
      <point x="540" y="574" type="line"/>
      <point x="540" y="700" type="line"/>
      <point x="72" y="700" type="line"/>
    </contour>
  </outline>
</glyph>
<glyph name="iogonek" format="1">
  <advance width="612"/>
  <unicode hex="012F"/>
  <outline>
    <contour>
      <point x="87" y="0" type="line"/>
      <point x="439" y="0" type="line"/>
      <point x="423" y="-72" type="line" smooth="yes"/>
      <point x="421" y="-81"/>
      <point x="420" y="-88"/>
      <point x="420" y="-95" type="curve" smooth="yes"/>
      <point x="420" y="-144"/>
      <point x="460" y="-170"/>
      <point x="500" y="-170" type="curve" smooth="yes"/>
      <point x="580" y="-170" type="line"/>
      <point x="580" y="-86" type="line"/>
      <point x="534" y="-86" type="line" smooth="yes"/>
      <point x="520" y="-86"/>
      <point x="511" y="-78"/>
      <point x="511" y="-64" type="curve" smooth="yes"/>
      <point x="511" y="-62"/>
      <point x="511" y="-61"/>
      <point x="512" y="-56" type="curve" smooth="yes"/>
      <point x="525" y="0" type="line"/>
      <point x="525" y="120" type="line"/>
      <point x="381" y="120" type="line"/>
      <point x="381" y="496" type="line"/>
      <point x="99" y="496" type="line"/>
      <point x="99" y="376" type="line"/>
      <point x="255" y="376" type="line"/>
      <point x="255" y="120" type="line"/>
      <point x="87" y="120" type="line"/>
    </contour>
    <contour>
      <point x="412" y="643" type="curve" smooth="yes"/>
      <point x="412" y="696"/>
      <point x="369" y="738"/>
      <point x="317" y="738" type="curve" smooth="yes"/>
      <point x="265" y="738"/>
      <point x="222" y="696"/>
      <point x="222" y="643" type="curve" smooth="yes"/>
      <point x="222" y="590"/>
      <point x="265" y="548"/>
      <point x="317" y="548" type="curve" smooth="yes"/>
      <point x="369" y="548"/>
      <point x="412" y="590"/>
    </contour>
  </outline>
</glyph>
<glyph name="dotlessi" format="1">
  <advance width="612"/>
  <unicode hex="0131"/>
  <outline>
    <contour>
      <point x="87" y="0" type="line"/>
      <point x="525" y="0" type="line"/>
      <point x="525" y="120" type="line"/>
      <point x="381" y="120" type="line"/>
      <point x="381" y="496" type="line"/>
      <point x="99" y="496" type="line"/>
      <point x="99" y="376" type="line"/>
      <point x="255" y="376" type="line"/>
      <point x="255" y="120" type="line"/>
      <point x="87" y="120" type="line"/>
    </contour>
  </outline>
</glyph>
<glyph name="uni0137" format="1">
  <advance width="612"/>
  <unicode hex="0137"/>
  <outline>
    <contour>
      <point x="413" y="-131" type="line" smooth="yes"/>
      <point x="413" y="-84"/>
      <point x="373" y="-44"/>
      <point x="326" y="-44" type="curve" smooth="yes"/>
      <point x="279" y="-44"/>
      <point x="239" y="-84"/>
      <point x="239" y="-131" type="curve" smooth="yes"/>
      <point x="239" y="-178"/>
      <point x="279" y="-218"/>
      <point x="326" y="-218" type="curve" smooth="yes"/>
      <point x="335" y="-218" type="line"/>
      <point x="335" y="-230" type="line" smooth="yes"/>
      <point x="335" y="-249"/>
      <point x="327" y="-260"/>
      <point x="308" y="-260" type="curve" smooth="yes"/>
      <point x="263" y="-260" type="line"/>
      <point x="263" y="-338" type="line"/>
      <point x="323" y="-338" type="line" smooth="yes"/>
      <point x="374" y="-338"/>
      <point x="413" y="-299"/>
      <point x="413" y="-248" type="curve" smooth="yes"/>
    </contour>
    <component base="k"/>
  </outline>
</glyph>
<glyph name="uni013B" format="1">
  <advance width="612"/>
  <unicode hex="013B"/>
  <outline>
    <contour>
      <point x="394" y="-131" type="line" smooth="yes"/>
      <point x="394" y="-84"/>
      <point x="354" y="-44"/>
      <point x="307" y="-44" type="curve" smooth="yes"/>
      <point x="260" y="-44"/>
      <point x="220" y="-84"/>
      <point x="220" y="-131" type="curve" smooth="yes"/>
      <point x="220" y="-178"/>
      <point x="260" y="-218"/>
      <point x="307" y="-218" type="curve" smooth="yes"/>
      <point x="316" y="-218" type="line"/>
      <point x="316" y="-230" type="line" smooth="yes"/>
      <point x="316" y="-249"/>
      <point x="308" y="-260"/>
      <point x="289" y="-260" type="curve" smooth="yes"/>
      <point x="244" y="-260" type="line"/>
      <point x="244" y="-338" type="line"/>
      <point x="304" y="-338" type="line" smooth="yes"/>
      <point x="355" y="-338"/>
      <point x="394" y="-299"/>
      <point x="394" y="-248" type="curve" smooth="yes"/>
    </contour>
    <component base="L"/>
  </outline>
</glyph>
<glyph name="Lcaron" format="1">
  <advance width="612"/>
  <unicode hex="013D"/>
  <outline>
    <contour>
      <point x="531" y="613" type="line" smooth="yes"/>
      <point x="531" y="660"/>
      <point x="491" y="700"/>
      <point x="444" y="700" type="curve" smooth="yes"/>
      <point x="397" y="700"/>
      <point x="357" y="660"/>
      <point x="357" y="613" type="curve" smooth="yes"/>
      <point x="357" y="566"/>
      <point x="397" y="526"/>
      <point x="444" y="526" type="curve" smooth="yes"/>
      <point x="453" y="526" type="line"/>
      <point x="453" y="514" type="line" smooth="yes"/>
      <point x="453" y="495"/>
      <point x="445" y="484"/>
      <point x="426" y="484" type="curve" smooth="yes"/>
      <point x="381" y="484" type="line"/>
      <point x="381" y="406" type="line"/>
      <point x="441" y="406" type="line" smooth="yes"/>
      <point x="492" y="406"/>
      <point x="531" y="445"/>
      <point x="531" y="496" type="curve" smooth="yes"/>
    </contour>
    <component base="L"/>
  </outline>
</glyph>
<glyph name="lslash" format="1">
  <advance width="612"/>
  <unicode hex="0142"/>
  <outline>
    <contour>
      <point x="75" y="0" type="line"/>
      <point x="537" y="0" type="line"/>
      <point x="537" y="120" type="line"/>
      <point x="375" y="120" type="line"/>
      <point x="375" y="299" type="line"/>
      <point x="485" y="355" type="line"/>
      <point x="431" y="462" type="line"/>
      <point x="375" y="433" type="line"/>
      <point x="375" y="700" type="line"/>
      <point x="81" y="700" type="line"/>
      <point x="81" y="580" type="line"/>
      <point x="249" y="580" type="line"/>
      <point x="249" y="370" type="line"/>
      <point x="154" y="322" type="line"/>
      <point x="208" y="215" type="line"/>
      <point x="249" y="235" type="line"/>
      <point x="249" y="120" type="line"/>
      <point x="75" y="120" type="line"/>
    </contour>
  </outline>
</glyph>
<glyph name="uni0145" format="1">
  <advance width="612"/>
  <unicode hex="0145"/>
  <outline>
    <contour>
      <point x="393" y="-131" type="line" smooth="yes"/>
      <point x="393" y="-84"/>
      <point x="353" y="-44"/>
      <point x="306" y="-44" type="curve" smooth="yes"/>
      <point x="259" y="-44"/>
      <point x="219" y="-84"/>
      <point x="219" y="-131" type="curve" smooth="yes"/>
      <point x="219" y="-178"/>
      <point x="259" y="-218"/>
      <point x="306" y="-218" type="curve" smooth="yes"/>
      <point x="315" y="-218" type="line"/>
      <point x="315" y="-230" type="line" smooth="yes"/>
      <point x="315" y="-249"/>
      <point x="307" y="-260"/>
      <point x="288" y="-260" type="curve" smooth="yes"/>
      <point x="243" y="-260" type="line"/>
      <point x="243" y="-338" type="line"/>
      <point x="303" y="-338" type="line" smooth="yes"/>
      <point x="354" y="-338"/>
      <point x="393" y="-299"/>
      <point x="393" y="-248" type="curve" smooth="yes"/>
    </contour>
    <component base="N"/>
  </outline>
</glyph>
<glyph name="Eng" format="1">
  <advance width="612"/>
  <unicode hex="014A"/>
  <outline>
    <contour>
      <point x="317" y="700" type="line"/>
      <point x="61" y="700" type="line"/>
      <point x="61" y="0" type="line"/>
      <point x="193" y="0" type="line"/>
      <point x="193" y="634" type="line"/>
      <point x="211" y="634" type="line"/>
      <point x="295" y="0" type="line"/>
      <point x="419" y="0" type="line"/>
      <point x="419" y="-41" type="line" smooth="yes"/>
      <point x="419" y="-62"/>
      <point x="410" y="-74"/>
      <point x="389" y="-74" type="curve" smooth="yes"/>
      <point x="244" y="-74" type="line"/>
      <point x="244" y="-200" type="line"/>
      <point x="450" y="-200" type="line" smooth="yes"/>
      <point x="510" y="-200"/>
      <point x="551" y="-167"/>
      <point x="551" y="-98" type="curve" smooth="yes"/>
      <point x="551" y="700" type="line"/>
      <point x="419" y="700" type="line"/>
      <point x="419" y="66" type="line"/>
      <point x="401" y="66" type="line"/>
    </contour>
  </outline>
</glyph>
<glyph name="oe" format="1">
  <advance width="612"/>
  <unicode hex="0153"/>
  <outline>
    <contour>
      <point x="44" y="242" type="line"/>
      <point x="44" y="78"/>
      <point x="175" y="-14"/>
      <point x="312" y="-14" type="curve" smooth="yes"/>
      <point x="318" y="-14" type="line" smooth="yes"/>
      <point x="431" y="-14"/>
      <point x="510" y="16"/>
      <point x="550" y="88" type="curve"/>
      <point x="448" y="152" type="line"/>
      <point x="436" y="124"/>
      <point x="408" y="110"/>
      <point x="376" y="110" type="curve"/>
      <point x="376" y="188" type="line"/>
      <point x="568" y="188" type="line"/>
      <point x="568" y="272" type="line" smooth="yes"/>
      <point x="568" y="408"/>
      <point x="474" y="510"/>
      <point x="316" y="510" type="curve" smooth="yes"/>
      <point x="310" y="510" type="line" smooth="yes"/>
      <point x="170" y="510"/>
      <point x="44" y="412"/>
      <point x="44" y="254" type="curve"/>
    </contour>
    <contour>
      <point x="170" y="248" type="curve"/>
      <point x="170" y="314"/>
      <point x="200" y="362"/>
      <point x="250" y="382" type="curve"/>
      <point x="250" y="116" type="line"/>
      <point x="200" y="136"/>
      <point x="170" y="182"/>
    </contour>
    <contour>
      <point x="376" y="308" type="line"/>
      <point x="376" y="386" type="line"/>
      <point x="416" y="380"/>
      <point x="442" y="352"/>
      <point x="442" y="308" type="curve"/>
    </contour>
  </outline>
</glyph>
<glyph name="uni0156" format="1">
  <advance width="612"/>
  <unicode hex="0156"/>
  <outline>
    <contour>
      <point x="395" y="-131" type="line" smooth="yes"/>
      <point x="395" y="-84"/>
      <point x="355" y="-44"/>
      <point x="308" y="-44" type="curve" smooth="yes"/>
      <point x="261" y="-44"/>
      <point x="221" y="-84"/>
      <point x="221" y="-131" type="curve" smooth="yes"/>
      <point x="221" y="-178"/>
      <point x="261" y="-218"/>
      <point x="308" y="-218" type="curve" smooth="yes"/>
      <point x="317" y="-218" type="line"/>
      <point x="317" y="-230" type="line" smooth="yes"/>
      <point x="317" y="-249"/>
      <point x="309" y="-260"/>
      <point x="290" y="-260" type="curve" smooth="yes"/>
      <point x="245" y="-260" type="line"/>
      <point x="245" y="-338" type="line"/>
      <point x="305" y="-338" type="line" smooth="yes"/>
      <point x="356" y="-338"/>
      <point x="395" y="-299"/>
      <point x="395" y="-248" type="curve" smooth="yes"/>
    </contour>
    <component base="R"/>
  </outline>
</glyph>
<glyph name="scedilla" format="1">
  <advance width="612"/>
  <unicode hex="015F"/>
  <outline>
    <contour>
      <point x="236" y="356" type="curve" smooth="yes"/>
      <point x="236" y="378"/>
      <point x="258" y="396"/>
      <point x="300" y="396" type="curve" smooth="yes"/>
      <point x="346" y="396"/>
      <point x="376" y="374"/>
      <point x="388" y="338" type="curve"/>
      <point x="502" y="384" type="line"/>
      <point x="481" y="441"/>
      <point x="426" y="510"/>
      <point x="300" y="510" type="curve" smooth="yes"/>
      <point x="204" y="510"/>
      <point x="112" y="456"/>
      <point x="112" y="358" type="curve" smooth="yes"/>
      <point x="112" y="352" type="line" smooth="yes"/>
      <point x="112" y="258"/>
      <point x="184" y="210"/>
      <point x="295" y="201" type="curve" smooth="yes"/>
      <point x="379" y="194"/>
      <point x="400" y="172"/>
      <point x="400" y="146" type="curve" smooth="yes"/>
      <point x="400" y="123"/>
      <point x="380" y="100"/>
      <point x="318" y="100" type="curve" smooth="yes"/>
      <point x="248" y="100"/>
      <point x="216" y="138"/>
      <point x="206" y="180" type="curve"/>
      <point x="90" y="142" type="line"/>
      <point x="101" y="87"/>
      <point x="143" y="19"/>
      <point x="240" y="-5" type="curve"/>
      <point x="221" y="-92" type="line"/>
      <point x="221" y="-104" type="line"/>
      <point x="318" y="-104" type="line"/>
      <point x="320" y="-96"/>
      <point x="327" y="-90"/>
      <point x="338" y="-90" type="curve" smooth="yes"/>
      <point x="351" y="-90"/>
      <point x="358" y="-100"/>
      <point x="358" y="-112" type="curve" smooth="yes"/>
      <point x="358" y="-128"/>
      <point x="344" y="-138"/>
      <point x="324" y="-138" type="curve" smooth="yes"/>
      <point x="306" y="-138"/>
      <point x="289" y="-133"/>
      <point x="274" y="-124" type="curve"/>
      <point x="248" y="-192" type="line"/>
      <point x="270" y="-204"/>
      <point x="294" y="-212"/>
      <point x="332" y="-212" type="curve" smooth="yes"/>
      <point x="394" y="-212"/>
      <point x="442" y="-174"/>
      <point x="442" y="-112" type="curve" smooth="yes"/>
      <point x="442" y="-64"/>
      <point x="414" y="-24"/>
      <point x="359" y="-24" type="curve" smooth="yes"/>
      <point x="334" y="-24"/>
      <point x="320" y="-34"/>
      <point x="313" y="-46" type="curve"/>
      <point x="301" y="-46" type="line"/>
      <point x="308" y="-14" type="line"/>
      <point x="318" y="-14" type="line" smooth="yes"/>
      <point x="448" y="-14"/>
      <point x="524" y="50"/>
      <point x="524" y="148" type="curve" smooth="yes"/>
      <point x="524" y="154" type="line" smooth="yes"/>
      <point x="524" y="243"/>
      <point x="453" y="293"/>
      <point x="352" y="304" type="curve" smooth="yes"/>
      <point x="264" y="314"/>
      <point x="236" y="324"/>
    </contour>
  </outline>
</glyph>
<glyph name="uni0163" format="1">
  <advance width="612"/>
  <unicode hex="0163"/>
  <outline>
    <contour>
      <point x="288" y="0" type="curve"/>
      <point x="268" y="-92" type="line"/>
      <point x="268" y="-104" type="line"/>
      <point x="365" y="-104" type="line"/>
      <point x="367" y="-96"/>
      <point x="374" y="-90"/>
      <point x="385" y="-90" type="curve" smooth="yes"/>
      <point x="398" y="-90"/>
      <point x="405" y="-100"/>
      <point x="405" y="-112" type="curve" smooth="yes"/>
      <point x="405" y="-128"/>
      <point x="391" y="-138"/>
      <point x="371" y="-138" type="curve" smooth="yes"/>
      <point x="353" y="-138"/>
      <point x="336" y="-133"/>
      <point x="321" y="-124" type="curve"/>
      <point x="295" y="-192" type="line"/>
      <point x="317" y="-204"/>
      <point x="341" y="-212"/>
      <point x="379" y="-212" type="curve" smooth="yes"/>
      <point x="441" y="-212"/>
      <point x="489" y="-174"/>
      <point x="489" y="-112" type="curve" smooth="yes"/>
      <point x="489" y="-64"/>
      <point x="461" y="-24"/>
      <point x="406" y="-24" type="curve" smooth="yes"/>
      <point x="381" y="-24"/>
      <point x="367" y="-34"/>
      <point x="360" y="-46" type="curve"/>
      <point x="348" y="-46" type="line"/>
      <point x="358" y="0" type="line"/>
      <point x="498" y="0" type="line"/>
      <point x="498" y="120" type="line"/>
      <point x="364" y="120" type="line" smooth="yes"/>
      <point x="345" y="120"/>
      <point x="337" y="131"/>
      <point x="337" y="150" type="curve" smooth="yes"/>
      <point x="337" y="376" type="line"/>
      <point x="516" y="376" type="line"/>
      <point x="516" y="496" type="line"/>
      <point x="337" y="496" type="line"/>
      <point x="337" y="700" type="line"/>
      <point x="211" y="700" type="line"/>
      <point x="211" y="496" type="line"/>
      <point x="64" y="496" type="line"/>
      <point x="64" y="376" type="line"/>
      <point x="211" y="376" type="line"/>
      <point x="211" y="78" type="line" smooth="yes"/>
      <point x="211" y="33"/>
      <point x="243" y="0"/>
    </contour>
  </outline>
</glyph>
<glyph name="Uogonek" format="1">
  <advance width="612"/>
  <unicode hex="0172"/>
  <outline>
    <contour>
      <point x="426" y="700" type="line"/>
      <point x="426" y="242" type="line" smooth="yes"/>
      <point x="426" y="160"/>
      <point x="388" y="110"/>
      <point x="306" y="110" type="curve" smooth="yes"/>
      <point x="224" y="110"/>
      <point x="186" y="160"/>
      <point x="186" y="242" type="curve" smooth="yes"/>
      <point x="186" y="700" type="line"/>
      <point x="54" y="700" type="line"/>
      <point x="54" y="242" type="line" smooth="yes"/>
      <point x="54" y="98"/>
      <point x="124" y="4"/>
      <point x="261" y="-11" type="curve"/>
      <point x="248" y="-72" type="line" smooth="yes"/>
      <point x="246" y="-81"/>
      <point x="245" y="-88"/>
      <point x="245" y="-95" type="curve" smooth="yes"/>
      <point x="245" y="-144"/>
      <point x="285" y="-170"/>
      <point x="325" y="-170" type="curve" smooth="yes"/>
      <point x="405" y="-170" type="line"/>
      <point x="405" y="-86" type="line"/>
      <point x="359" y="-86" type="line" smooth="yes"/>
      <point x="345" y="-86"/>
      <point x="336" y="-78"/>
      <point x="336" y="-64" type="curve" smooth="yes"/>
      <point x="336" y="-62"/>
      <point x="336" y="-61"/>
      <point x="337" y="-56" type="curve" smooth="yes"/>
      <point x="347" y="-12" type="line"/>
      <point x="486" y="3"/>
      <point x="558" y="97"/>
      <point x="558" y="242" type="curve" smooth="yes"/>
      <point x="558" y="700" type="line"/>
    </contour>
  </outline>
</glyph>
<glyph name="longs" format="1">
  <advance width="612"/>
  <unicode hex="017F"/>
  <outline>
    <contour>
      <point x="170" y="376" type="line"/>
      <point x="230" y="376" type="line"/>
      <point x="230" y="0" type="line"/>
      <point x="356" y="0" type="line"/>
      <point x="356" y="550" type="line" smooth="yes"/>
      <point x="356" y="569"/>
      <point x="364" y="580"/>
      <point x="383" y="580" type="curve" smooth="yes"/>
      <point x="533" y="580" type="line"/>
      <point x="533" y="700" type="line"/>
      <point x="331" y="700" type="line" smooth="yes"/>
      <point x="274" y="700"/>
      <point x="230" y="655"/>
      <point x="230" y="598" type="curve" smooth="yes"/>
      <point x="230" y="496" type="line"/>
      <point x="170" y="496" type="line"/>
    </contour>
  </outline>
</glyph>
<glyph name="uni018F" format="1">
  <advance width="612"/>
  <unicode hex="018F"/>
  <outline>
    <contour>
      <point x="48" y="380" type="line"/>
      <point x="432" y="380" type="line"/>
      <point x="432" y="438" type="line" smooth="yes"/>
      <point x="432" y="522"/>
      <point x="392" y="594"/>
      <point x="304" y="594" type="curve" smooth="yes"/>
      <point x="208" y="594"/>
      <point x="180" y="520"/>
      <point x="180" y="454" type="curve" smooth="yes"/>
      <point x="180" y="448" type="line"/>
      <point x="48" y="448" type="line"/>
      <point x="48" y="454" type="line" smooth="yes"/>
      <point x="48" y="614"/>
      <point x="138" y="714"/>
      <point x="304" y="714" type="curve" smooth="yes"/>
      <point x="464" y="714"/>
      <point x="564" y="608"/>
      <point x="564" y="428" type="curve" smooth="yes"/>
      <point x="564" y="272" type="line" smooth="yes"/>
      <point x="564" y="86"/>
      <point x="464" y="-14"/>
      <point x="304" y="-14" type="curve" smooth="yes"/>
      <point x="138" y="-14"/>
      <point x="48" y="80"/>
      <point x="48" y="252" type="curve" smooth="yes"/>
    </contour>
    <contour>
      <point x="304" y="106" type="curve" smooth="yes"/>
      <point x="398" y="106"/>
      <point x="432" y="167"/>
      <point x="432" y="254" type="curve"/>
      <point x="180" y="254" type="line"/>
      <point x="180" y="246" type="line" smooth="yes"/>
      <point x="180" y="174"/>
      <point x="202" y="106"/>
    </contour>
  </outline>
</glyph>
<glyph name="uni021B" format="1">
  <advance width="612"/>
  <unicode hex="021B"/>
  <outline>
    <contour>
      <point x="385" y="-131" type="line" smooth="yes"/>
      <point x="385" y="-84"/>
      <point x="345" y="-44"/>
      <point x="298" y="-44" type="curve" smooth="yes"/>
      <point x="251" y="-44"/>
      <point x="211" y="-84"/>
      <point x="211" y="-131" type="curve" smooth="yes"/>
      <point x="211" y="-178"/>
      <point x="251" y="-218"/>
      <point x="298" y="-218" type="curve" smooth="yes"/>
      <point x="307" y="-218" type="line"/>
      <point x="307" y="-230" type="line" smooth="yes"/>
      <point x="307" y="-249"/>
      <point x="299" y="-260"/>
      <point x="280" y="-260" type="curve" smooth="yes"/>
      <point x="235" y="-260" type="line"/>
      <point x="235" y="-338" type="line"/>
      <point x="295" y="-338" type="line" smooth="yes"/>
      <point x="346" y="-338"/>
      <point x="385" y="-299"/>
      <point x="385" y="-248" type="curve" smooth="yes"/>
    </contour>
    <component base="t"/>
  </outline>
</glyph>
<glyph name="uni0237" format="1">
  <advance width="612"/>
  <unicode hex="0237"/>
  <outline>
    <contour>
      <point x="132" y="376" type="line"/>
      <point x="324" y="376" type="line"/>
      <point x="324" y="-47" type="line" smooth="yes"/>
      <point x="324" y="-68"/>
      <point x="315" y="-80"/>
      <point x="294" y="-80" type="curve" smooth="yes"/>
      <point x="114" y="-80" type="line"/>
      <point x="114" y="-200" type="line"/>
      <point x="349" y="-200" type="line" smooth="yes"/>
      <point x="409" y="-200"/>
      <point x="450" y="-167"/>
      <point x="450" y="-98" type="curve" smooth="yes"/>
      <point x="450" y="496" type="line"/>
      <point x="132" y="496" type="line"/>
    </contour>
  </outline>
</glyph>
<glyph name="uni0254" format="1">
  <advance width="612"/>
  <unicode hex="0254"/>
  <outline>
    <contour>
      <point x="176" y="283" type="line"/>
      <point x="188" y="348"/>
      <point x="227" y="390"/>
      <point x="304" y="390" type="curve" smooth="yes"/>
      <point x="376" y="390"/>
      <point x="436" y="344"/>
      <point x="436" y="255" type="curve" smooth="yes"/>
      <point x="436" y="249" type="line" smooth="yes"/>
      <point x="436" y="160"/>
      <point x="376" y="106"/>
      <point x="304" y="106" type="curve" smooth="yes"/>
      <point x="227" y="106"/>
      <point x="184" y="155"/>
      <point x="176" y="214" type="curve"/>
      <point x="52" y="182" type="line"/>
      <point x="74" y="65"/>
      <point x="164" y="-14"/>
      <point x="302" y="-14" type="curve" smooth="yes"/>
      <point x="447" y="-14"/>
      <point x="562" y="86"/>
      <point x="562" y="246" type="curve" smooth="yes"/>
      <point x="562" y="258" type="line" smooth="yes"/>
      <point x="562" y="418"/>
      <point x="448" y="510"/>
      <point x="302" y="510" type="curve" smooth="yes"/>
      <point x="161" y="510"/>
      <point x="74" y="431"/>
      <point x="52" y="314" type="curve"/>
    </contour>
  </outline>
</glyph>
<glyph name="circumflex" format="1">
  <advance width="612"/>
  <unicode hex="02C6"/>
  <outline>
    <contour>
      <point x="476" y="570" type="line"/>
      <point x="392" y="706" type="line"/>
      <point x="220" y="706" type="line"/>
      <point x="136" y="570" type="line"/>
      <point x="257" y="570" type="line"/>
      <point x="300" y="658" type="line"/>
      <point x="312" y="658" type="line"/>
      <point x="355" y="570" type="line"/>
    </contour>
  </outline>
</glyph>
<glyph name="ogonek" format="1">
  <advance width="612"/>
  <unicode hex="02DB"/>
  <outline>
    <contour>
      <point x="252" y="30" type="line"/>
      <point x="229" y="-72" type="line" smooth="yes"/>
      <point x="227" y="-81"/>
      <point x="226" y="-88"/>
      <point x="226" y="-95" type="curve" smooth="yes"/>
      <point x="226" y="-144"/>
      <point x="266" y="-170"/>
      <point x="306" y="-170" type="curve" smooth="yes"/>
      <point x="386" y="-170" type="line"/>
      <point x="386" y="-86" type="line"/>
      <point x="340" y="-86" type="line" smooth="yes"/>
      <point x="326" y="-86"/>
      <point x="317" y="-78"/>
      <point x="317" y="-64" type="curve" smooth="yes"/>
      <point x="317" y="-62"/>
      <point x="317" y="-61"/>
      <point x="318" y="-56" type="curve" smooth="yes"/>
      <point x="338" y="30" type="line"/>
    </contour>
  </outline>
</glyph>
<glyph name="uni0309" format="1">
  <advance width="612"/>
  <unicode hex="0309"/>
  <outline>
    <contour>
      <point x="215" y="546" type="line"/>
      <point x="195" y="638" type="line"/>
      <point x="195" y="650" type="line"/>
      <point x="292" y="650" type="line"/>
      <point x="294" y="642"/>
      <point x="301" y="636"/>
      <point x="312" y="636" type="curve" smooth="yes"/>
      <point x="325" y="636"/>
      <point x="332" y="646"/>
      <point x="332" y="658" type="curve" smooth="yes"/>
      <point x="332" y="674"/>
      <point x="318" y="684"/>
      <point x="298" y="684" type="curve" smooth="yes"/>
      <point x="280" y="684"/>
      <point x="263" y="679"/>
      <point x="248" y="670" type="curve"/>
      <point x="222" y="738" type="line"/>
      <point x="244" y="750"/>
      <point x="268" y="758"/>
      <point x="306" y="758" type="curve" smooth="yes"/>
      <point x="368" y="758"/>
      <point x="416" y="720"/>
      <point x="416" y="658" type="curve" smooth="yes"/>
      <point x="416" y="610"/>
      <point x="388" y="570"/>
      <point x="333" y="570" type="curve" smooth="yes"/>
      <point x="308" y="570"/>
      <point x="294" y="580"/>
      <point x="287" y="592" type="curve"/>
      <point x="275" y="592" type="line"/>
      <point x="285" y="546" type="line"/>
    </contour>
  </outline>
</glyph>
<glyph name="pi" format="1">
  <advance width="612"/>
  <unicode hex="03C0"/>
  <outline>
    <contour>
      <point x="254" y="0" type="line"/>
      <point x="254" y="376" type="line"/>
      <point x="360" y="376" type="line"/>
      <point x="360" y="96" type="line" smooth="yes"/>
      <point x="360" y="40"/>
      <point x="400" y="0"/>
      <point x="456" y="0" type="curve" smooth="yes"/>
      <point x="564" y="0" type="line"/>
      <point x="564" y="120" type="line"/>
      <point x="513" y="120" type="line" smooth="yes"/>
      <point x="494" y="120"/>
      <point x="486" y="131"/>
      <point x="486" y="150" type="curve" smooth="yes"/>
      <point x="486" y="376" type="line"/>
      <point x="564" y="376" type="line"/>
      <point x="564" y="496" type="line"/>
      <point x="50" y="496" type="line"/>
      <point x="50" y="376" type="line"/>
      <point x="128" y="376" type="line"/>
      <point x="128" y="0" type="line"/>
    </contour>
  </outline>
</glyph>
<glyph name="uni1EF5" format="1">
  <advance width="612"/>
  <unicode hex="1EF5"/>
  <outline>
    <contour>
      <point x="414" y="236" type="line" smooth="yes"/>
      <point x="414" y="152"/>
      <point x="380" y="100"/>
      <point x="304" y="100" type="curve" smooth="yes"/>
      <point x="238" y="100"/>
      <point x="204" y="142"/>
      <point x="204" y="212" type="curve" smooth="yes"/>
      <point x="204" y="496" type="line"/>
      <point x="78" y="496" type="line"/>
      <point x="78" y="186" type="line" smooth="yes"/>
      <point x="78" y="50"/>
      <point x="156" y="-14"/>
      <point x="254" y="-14" type="curve" smooth="yes"/>
      <point x="328" y="-14"/>
      <point x="374" y="14"/>
      <point x="396" y="72" type="curve"/>
      <point x="414" y="72" type="line"/>
      <point x="414" y="-50" type="line" smooth="yes"/>
      <point x="414" y="-69"/>
      <point x="406" y="-80"/>
      <point x="387" y="-80" type="curve" smooth="yes"/>
      <point x="286" y="-80" type="line"/>
      <point x="286" y="-200" type="line"/>
      <point x="463" y="-200" type="line" smooth="yes"/>
      <point x="508" y="-200"/>
      <point x="540" y="-167"/>
      <point x="540" y="-122" type="curve" smooth="yes"/>
      <point x="540" y="496" type="line"/>
      <point x="414" y="496" type="line"/>
    </contour>
    <component base="dotaccent" xOffset="-149" yOffset="-783"/>
  </outline>
</glyph>
<glyph name="quoteleft" format="1">
  <advance width="612"/>
  <unicode hex="2018"/>
  <outline>
    <contour>
      <point x="401" y="502" type="curve" smooth="yes"/>
      <point x="401" y="558"/>
      <point x="363" y="597"/>
      <point x="308" y="597" type="curve" smooth="yes"/>
      <point x="302" y="597"/>
      <point x="294" y="596"/>
      <point x="289" y="594" type="curve"/>
      <point x="289" y="606" type="line" smooth="yes"/>
      <point x="289" y="625"/>
      <point x="297" y="636"/>
      <point x="316" y="636" type="curve" smooth="yes"/>
      <point x="364" y="636" type="line"/>
      <point x="364" y="714" type="line"/>
      <point x="300" y="714" type="line" smooth="yes"/>
      <point x="249" y="714"/>
      <point x="211" y="675"/>
      <point x="211" y="624" type="curve" smooth="yes"/>
      <point x="211" y="502" type="line" smooth="yes"/>
      <point x="211" y="450"/>
      <point x="254" y="408"/>
      <point x="306" y="408" type="curve" smooth="yes"/>
      <point x="358" y="408"/>
      <point x="401" y="450"/>
    </contour>
  </outline>
</glyph>
<glyph name="quoteright" format="1">
  <advance width="612"/>
  <unicode hex="2019"/>
  <outline>
    <contour>
      <point x="211" y="620" type="curve" smooth="yes"/>
      <point x="211" y="568"/>
      <point x="254" y="525"/>
      <point x="306" y="525" type="curve" smooth="yes"/>
      <point x="312" y="525"/>
      <point x="318" y="526"/>
      <point x="323" y="528" type="curve"/>
      <point x="323" y="516" type="line" smooth="yes"/>
      <point x="323" y="497"/>
      <point x="315" y="486"/>
      <point x="296" y="486" type="curve" smooth="yes"/>
      <point x="248" y="486" type="line"/>
      <point x="248" y="408" type="line"/>
      <point x="312" y="408" type="line" smooth="yes"/>
      <point x="363" y="408"/>
      <point x="401" y="447"/>
      <point x="401" y="498" type="curve" smooth="yes"/>
      <point x="401" y="620" type="line" smooth="yes"/>
      <point x="401" y="672"/>
      <point x="358" y="714"/>
      <point x="306" y="714" type="curve" smooth="yes"/>
      <point x="254" y="714"/>
      <point x="211" y="672"/>
    </contour>
  </outline>
</glyph>
<glyph name="quotesinglbase" format="1">
  <advance width="612"/>
  <unicode hex="201A"/>
  <outline>
    <contour>
      <point x="211" y="95" type="curve" smooth="yes"/>
      <point x="211" y="43"/>
      <point x="254" y="0"/>
      <point x="306" y="0" type="curve" smooth="yes"/>
      <point x="312" y="0"/>
      <point x="318" y="1"/>
      <point x="323" y="3" type="curve"/>
      <point x="323" y="-9" type="line" smooth="yes"/>
      <point x="323" y="-28"/>
      <point x="315" y="-39"/>
      <point x="296" y="-39" type="curve" smooth="yes"/>
      <point x="248" y="-39" type="line"/>
      <point x="248" y="-117" type="line"/>
      <point x="312" y="-117" type="line" smooth="yes"/>
      <point x="363" y="-117"/>
      <point x="401" y="-78"/>
      <point x="401" y="-27" type="curve" smooth="yes"/>
      <point x="401" y="95" type="line" smooth="yes"/>
      <point x="401" y="147"/>
      <point x="358" y="189"/>
      <point x="306" y="189" type="curve" smooth="yes"/>
      <point x="254" y="189"/>
      <point x="211" y="147"/>
    </contour>
  </outline>
</glyph>
<glyph name="quotedblbase" format="1">
  <advance width="612"/>
  <unicode hex="201E"/>
  <outline>
    <contour>
      <point x="98" y="95" type="curve" smooth="yes"/>
      <point x="98" y="43"/>
      <point x="141" y="0"/>
      <point x="193" y="0" type="curve" smooth="yes"/>
      <point x="199" y="0"/>
      <point x="205" y="1"/>
      <point x="210" y="3" type="curve"/>
      <point x="210" y="-9" type="line" smooth="yes"/>
      <point x="210" y="-28"/>
      <point x="202" y="-39"/>
      <point x="183" y="-39" type="curve" smooth="yes"/>
      <point x="135" y="-39" type="line"/>
      <point x="135" y="-117" type="line"/>
      <point x="199" y="-117" type="line" smooth="yes"/>
      <point x="250" y="-117"/>
      <point x="288" y="-78"/>
      <point x="288" y="-27" type="curve" smooth="yes"/>
      <point x="288" y="95" type="line" smooth="yes"/>
      <point x="288" y="147"/>
      <point x="245" y="189"/>
      <point x="193" y="189" type="curve" smooth="yes"/>
      <point x="141" y="189"/>
      <point x="98" y="147"/>
    </contour>
    <contour>
      <point x="324" y="95" type="curve" smooth="yes"/>
      <point x="324" y="43"/>
      <point x="367" y="0"/>
      <point x="419" y="0" type="curve" smooth="yes"/>
      <point x="425" y="0"/>
      <point x="431" y="1"/>
      <point x="436" y="3" type="curve"/>
      <point x="436" y="-9" type="line" smooth="yes"/>
      <point x="436" y="-28"/>
      <point x="428" y="-39"/>
      <point x="409" y="-39" type="curve" smooth="yes"/>
      <point x="361" y="-39" type="line"/>
      <point x="361" y="-117" type="line"/>
      <point x="425" y="-117" type="line" smooth="yes"/>
      <point x="476" y="-117"/>
      <point x="514" y="-78"/>
      <point x="514" y="-27" type="curve" smooth="yes"/>
      <point x="514" y="95" type="line" smooth="yes"/>
      <point x="514" y="147"/>
      <point x="471" y="189"/>
      <point x="419" y="189" type="curve" smooth="yes"/>
      <point x="367" y="189"/>
      <point x="324" y="147"/>
    </contour>
  </outline>
</glyph>
<glyph name="ellipsis" format="1">
  <advance width="612"/>
  <unicode hex="2026"/>
  <outline>
    <contour>
      <point x="591" y="81" type="curve" smooth="yes"/>
      <point x="591" y="134"/>
      <point x="548" y="176"/>
      <point x="496" y="176" type="curve" smooth="yes"/>
      <point x="444" y="176"/>
      <point x="401" y="134"/>
      <point x="401" y="81" type="curve" smooth="yes"/>
      <point x="401" y="28"/>
      <point x="444" y="-14"/>
      <point x="496" y="-14" type="curve" smooth="yes"/>
      <point x="548" y="-14"/>
      <point x="591" y="28"/>
    </contour>
    <contour>
      <point x="401" y="81" type="curve" smooth="yes"/>
      <point x="401" y="134"/>
      <point x="358" y="176"/>
      <point x="306" y="176" type="curve" smooth="yes"/>
      <point x="254" y="176"/>
      <point x="211" y="134"/>
      <point x="211" y="81" type="curve" smooth="yes"/>
      <point x="211" y="134"/>
      <point x="168" y="176"/>
      <point x="116" y="176" type="curve" smooth="yes"/>
      <point x="64" y="176"/>
      <point x="21" y="134"/>
      <point x="21" y="81" type="curve" smooth="yes"/>
      <point x="21" y="28"/>
      <point x="64" y="-14"/>
      <point x="116" y="-14" type="curve" smooth="yes"/>
      <point x="168" y="-14"/>
      <point x="211" y="28"/>
      <point x="211" y="81" type="curve" smooth="yes"/>
      <point x="211" y="28"/>
      <point x="254" y="-14"/>
      <point x="306" y="-14" type="curve" smooth="yes"/>
      <point x="358" y="-14"/>
      <point x="401" y="28"/>
    </contour>
  </outline>
</glyph>
<glyph name="perthousand" format="1">
  <advance width="612"/>
  <unicode hex="2030"/>
  <outline>
    <contour>
      <point x="324" y="562" type="curve" smooth="yes"/>
      <point x="324" y="657"/>
      <point x="248" y="712"/>
      <point x="171" y="712" type="curve" smooth="yes"/>
      <point x="94" y="712"/>
      <point x="18" y="657"/>
      <point x="18" y="562" type="curve" smooth="yes"/>
      <point x="18" y="467"/>
      <point x="94" y="412"/>
      <point x="171" y="412" type="curve" smooth="yes"/>
      <point x="248" y="412"/>
      <point x="324" y="467"/>
    </contour>
    <contour>
      <point x="171" y="496" type="curve" smooth="yes"/>
      <point x="138" y="496"/>
      <point x="108" y="520"/>
      <point x="108" y="562" type="curve" smooth="yes"/>
      <point x="108" y="604"/>
      <point x="138" y="628"/>
      <point x="171" y="628" type="curve" smooth="yes"/>
      <point x="204" y="628"/>
      <point x="234" y="604"/>
      <point x="234" y="562" type="curve" smooth="yes"/>
      <point x="234" y="520"/>
      <point x="204" y="496"/>
    </contour>
    <contour>
      <point x="243" y="96" type="line" smooth="yes"/>
      <point x="243" y="32"/>
      <point x="283" y="-12"/>
      <point x="351" y="-12" type="curve" smooth="yes"/>
      <point x="377" y="-12"/>
      <point x="398" y="-2"/>
      <point x="413" y="12" type="curve"/>
      <point x="425" y="12" type="line"/>
      <point x="440" y="-2"/>
      <point x="461" y="-12"/>
      <point x="487" y="-12" type="curve" smooth="yes"/>
      <point x="555" y="-12"/>
      <point x="594" y="32"/>
      <point x="594" y="96" type="curve" smooth="yes"/>
      <point x="594" y="180" type="line" smooth="yes"/>
      <point x="594" y="244"/>
      <point x="555" y="288"/>
      <point x="487" y="288" type="curve" smooth="yes"/>
      <point x="461" y="288"/>
      <point x="440" y="278"/>
      <point x="425" y="264" type="curve"/>
      <point x="413" y="264" type="line"/>
      <point x="398" y="278"/>
      <point x="377" y="288"/>
      <point x="351" y="288" type="curve" smooth="yes"/>
      <point x="283" y="288"/>
      <point x="243" y="244"/>
      <point x="243" y="180" type="curve" smooth="yes"/>
    </contour>
    <contour>
      <point x="353" y="69" type="curve" smooth="yes"/>
      <point x="341" y="69"/>
      <point x="330" y="77"/>
      <point x="330" y="96" type="curve" smooth="yes"/>
      <point x="330" y="180" type="line" smooth="yes"/>
      <point x="330" y="199"/>
      <point x="341" y="207"/>
      <point x="353" y="207" type="curve" smooth="yes"/>
      <point x="365" y="207"/>
      <point x="375" y="199"/>
      <point x="375" y="180" type="curve" smooth="yes"/>
      <point x="375" y="96" type="line" smooth="yes"/>
      <point x="375" y="77"/>
      <point x="365" y="69"/>
    </contour>
    <contour>
      <point x="485" y="69" type="curve" smooth="yes"/>
      <point x="473" y="69"/>
      <point x="462" y="77"/>
      <point x="462" y="96" type="curve" smooth="yes"/>
      <point x="462" y="180" type="line" smooth="yes"/>
      <point x="462" y="199"/>
      <point x="473" y="207"/>
      <point x="485" y="207" type="curve" smooth="yes"/>
      <point x="497" y="207"/>
      <point x="507" y="199"/>
      <point x="507" y="180" type="curve" smooth="yes"/>
      <point x="507" y="96" type="line" smooth="yes"/>
      <point x="507" y="77"/>
      <point x="497" y="69"/>
    </contour>
    <component base="fraction" xOffset="-31"/>
  </outline>
</glyph>
<glyph name="uni2032" format="1">
  <advance width="612"/>
  <unicode hex="2032"/>
  <outline>
    <contour>
      <point x="233" y="420" type="line"/>
      <point x="309" y="404" type="line"/>
      <point x="335" y="526" type="line"/>
      <point x="377" y="535"/>
      <point x="409" y="576"/>
      <point x="409" y="620" type="curve" smooth="yes"/>
      <point x="409" y="672"/>
      <point x="367" y="714"/>
      <point x="315" y="714" type="curve" smooth="yes"/>
      <point x="263" y="714"/>
      <point x="220" y="672"/>
      <point x="220" y="620" type="curve" smooth="yes"/>
      <point x="220" y="590"/>
      <point x="235" y="560"/>
      <point x="259" y="543" type="curve"/>
    </contour>
  </outline>
</glyph>
<glyph name="uni2033" format="1">
  <advance width="612"/>
  <unicode hex="2033"/>
  <outline>
    <contour>
      <point x="111" y="420" type="line"/>
      <point x="187" y="404" type="line"/>
      <point x="213" y="526" type="line"/>
      <point x="255" y="535"/>
      <point x="287" y="576"/>
      <point x="287" y="620" type="curve" smooth="yes"/>
      <point x="287" y="672"/>
      <point x="245" y="714"/>
      <point x="193" y="714" type="curve" smooth="yes"/>
      <point x="141" y="714"/>
      <point x="98" y="672"/>
      <point x="98" y="620" type="curve" smooth="yes"/>
      <point x="98" y="590"/>
      <point x="113" y="560"/>
      <point x="137" y="543" type="curve"/>
    </contour>
    <contour>
      <point x="342" y="420" type="line"/>
      <point x="418" y="404" type="line"/>
      <point x="444" y="526" type="line"/>
      <point x="486" y="535"/>
      <point x="518" y="576"/>
      <point x="518" y="620" type="curve" smooth="yes"/>
      <point x="518" y="672"/>
      <point x="476" y="714"/>
      <point x="424" y="714" type="curve" smooth="yes"/>
      <point x="372" y="714"/>
      <point x="329" y="672"/>
      <point x="329" y="620" type="curve" smooth="yes"/>
      <point x="329" y="590"/>
      <point x="344" y="560"/>
      <point x="368" y="543" type="curve"/>
    </contour>
  </outline>
</glyph>
<glyph name="guilsinglleft" format="1">
  <advance width="612"/>
  <unicode hex="2039"/>
  <outline>
    <contour>
      <point x="432" y="0" type="line"/>
      <point x="432" y="142" type="line"/>
      <point x="258" y="239" type="line"/>
      <point x="258" y="257" type="line"/>
      <point x="432" y="354" type="line"/>
      <point x="432" y="496" type="line"/>
      <point x="426" y="496" type="line"/>
      <point x="180" y="344" type="line"/>
      <point x="180" y="152" type="line"/>
      <point x="426" y="0" type="line"/>
    </contour>
  </outline>
</glyph>
<glyph name="uni2070" format="1">
  <advance width="612"/>
  <unicode hex="2070"/>
  <outline>
    <contour>
      <point x="416" y="601" type="line"/>
      <point x="416" y="662"/>
      <point x="373" y="706"/>
      <point x="306" y="706" type="curve" smooth="yes"/>
      <point x="239" y="706"/>
      <point x="196" y="662"/>
      <point x="196" y="601" type="curve" smooth="yes"/>
      <point x="196" y="511" type="line" smooth="yes"/>
      <point x="196" y="450"/>
      <point x="239" y="406"/>
      <point x="306" y="406" type="curve" smooth="yes"/>
      <point x="373" y="406"/>
      <point x="416" y="450"/>
      <point x="416" y="511" type="curve"/>
    </contour>
    <contour>
      <point x="306" y="634" type="curve"/>
      <point x="328" y="634"/>
      <point x="338" y="619"/>
      <point x="338" y="596" type="curve" smooth="yes"/>
      <point x="338" y="516" type="line" smooth="yes"/>
      <point x="338" y="493"/>
      <point x="328" y="478"/>
      <point x="306" y="478" type="curve" smooth="yes"/>
      <point x="284" y="478"/>
      <point x="274" y="493"/>
      <point x="274" y="516" type="curve" smooth="yes"/>
      <point x="274" y="596" type="line" smooth="yes"/>
      <point x="274" y="619"/>
      <point x="284" y="634"/>
    </contour>
  </outline>
</glyph>
<glyph name="uni2071" format="1">
  <advance width="612"/>
  <unicode hex="2071"/>
  <outline>
    <contour>
      <point x="191" y="412" type="line"/>
      <point x="443" y="412" type="line"/>
      <point x="443" y="484" type="line"/>
      <point x="359" y="484" type="line"/>
      <point x="359" y="700" type="line"/>
      <point x="199" y="700" type="line"/>
      <point x="199" y="628" type="line"/>
      <point x="281" y="628" type="line"/>
      <point x="281" y="484" type="line"/>
      <point x="191" y="484" type="line"/>
    </contour>
    <contour>
      <point x="260" y="790" type="curve"/>
      <point x="260" y="756"/>
      <point x="286" y="730"/>
      <point x="320" y="730" type="curve" smooth="yes"/>
      <point x="354" y="730"/>
      <point x="380" y="756"/>
      <point x="380" y="790" type="curve" smooth="yes"/>
      <point x="380" y="824"/>
      <point x="354" y="850"/>
      <point x="320" y="850" type="curve" smooth="yes"/>
      <point x="286" y="850"/>
      <point x="260" y="824"/>
    </contour>
  </outline>
</glyph>
<glyph name="uni2076" format="1">
  <advance width="612"/>
  <unicode hex="2076"/>
  <outline>
    <contour>
      <point x="408" y="614" type="line"/>
      <point x="406" y="670"/>
      <point x="362" y="706"/>
      <point x="304" y="706" type="curve" smooth="yes"/>
      <point x="250" y="706"/>
      <point x="200" y="668"/>
      <point x="200" y="604" type="curve" smooth="yes"/>
      <point x="200" y="506" type="line" smooth="yes"/>
      <point x="200" y="444"/>
      <point x="249" y="406"/>
      <point x="306" y="406" type="curve" smooth="yes"/>
      <point x="366" y="406"/>
      <point x="412" y="446"/>
      <point x="412" y="508" type="curve" smooth="yes"/>
      <point x="412" y="562"/>
      <point x="378" y="594"/>
      <point x="334" y="594" type="curve" smooth="yes"/>
      <point x="312" y="594"/>
      <point x="296" y="585"/>
      <point x="287" y="570" type="curve"/>
      <point x="278" y="570" type="line"/>
      <point x="278" y="610" type="line" smooth="yes"/>
      <point x="278" y="625"/>
      <point x="287" y="636"/>
      <point x="304" y="636" type="curve" smooth="yes"/>
      <point x="321" y="636"/>
      <point x="329" y="626"/>
      <point x="330" y="614" type="curve"/>
    </contour>
    <contour>
      <point x="306" y="522" type="curve"/>
      <point x="322" y="522"/>
      <point x="334" y="514"/>
      <point x="334" y="500" type="curve" smooth="yes"/>
      <point x="334" y="486"/>
      <point x="322" y="478"/>
      <point x="306" y="478" type="curve" smooth="yes"/>
      <point x="290" y="478"/>
      <point x="278" y="486"/>
      <point x="278" y="500" type="curve" smooth="yes"/>
      <point x="278" y="514"/>
      <point x="290" y="522"/>
    </contour>
  </outline>
</glyph>
<glyph name="uni2078" format="1">
  <advance width="612"/>
  <unicode hex="2078"/>
  <outline>
    <contour>
      <point x="306" y="406" type="curve" smooth="yes"/>
      <point x="358" y="406"/>
      <point x="412" y="432"/>
      <point x="412" y="492" type="curve" smooth="yes"/>
      <point x="412" y="530"/>
      <point x="387" y="551"/>
      <point x="365" y="557" type="curve"/>
      <point x="365" y="565" type="line"/>
      <point x="384" y="572"/>
      <point x="406" y="588"/>
      <point x="406" y="627" type="curve" smooth="yes"/>
      <point x="406" y="675"/>
      <point x="362" y="706"/>
      <point x="306" y="706" type="curve" smooth="yes"/>
      <point x="250" y="706"/>
      <point x="206" y="675"/>
      <point x="206" y="627" type="curve" smooth="yes"/>
      <point x="206" y="588"/>
      <point x="228" y="572"/>
      <point x="247" y="565" type="curve"/>
      <point x="247" y="557" type="line"/>
      <point x="225" y="551"/>
      <point x="200" y="530"/>
      <point x="200" y="492" type="curve" smooth="yes"/>
      <point x="200" y="432"/>
      <point x="254" y="406"/>
    </contour>
    <contour>
      <point x="306" y="478" type="curve"/>
      <point x="289" y="478"/>
      <point x="278" y="487"/>
      <point x="278" y="502" type="curve" smooth="yes"/>
      <point x="278" y="517"/>
      <point x="289" y="526"/>
      <point x="306" y="526" type="curve" smooth="yes"/>
      <point x="323" y="526"/>
      <point x="334" y="517"/>
      <point x="334" y="502" type="curve" smooth="yes"/>
      <point x="334" y="487"/>
      <point x="323" y="478"/>
    </contour>
    <contour>
      <point x="306" y="636" type="curve"/>
      <point x="318" y="636"/>
      <point x="328" y="628"/>
      <point x="328" y="616" type="curve" smooth="yes"/>
      <point x="328" y="604"/>
      <point x="318" y="596"/>
      <point x="306" y="596" type="curve" smooth="yes"/>
      <point x="294" y="596"/>
      <point x="284" y="604"/>
      <point x="284" y="616" type="curve" smooth="yes"/>
      <point x="284" y="628"/>
      <point x="294" y="636"/>
    </contour>
  </outline>
</glyph>
<glyph name="uni2079" format="1">
  <advance width="612"/>
  <unicode hex="2079"/>
  <outline>
    <contour>
      <point x="204" y="496" type="line"/>
      <point x="204" y="440"/>
      <point x="250" y="406"/>
      <point x="308" y="406" type="curve" smooth="yes"/>
      <point x="362" y="406"/>
      <point x="412" y="444"/>
      <point x="412" y="508" type="curve" smooth="yes"/>
      <point x="412" y="606" type="line" smooth="yes"/>
      <point x="412" y="668"/>
      <point x="366" y="706"/>
      <point x="306" y="706" type="curve" smooth="yes"/>
      <point x="244" y="706"/>
      <point x="200" y="668"/>
      <point x="200" y="606" type="curve" smooth="yes"/>
      <point x="200" y="554"/>
      <point x="233" y="516"/>
      <point x="281" y="516" type="curve" smooth="yes"/>
      <point x="305" y="516"/>
      <point x="318" y="524"/>
      <point x="325" y="536" type="curve"/>
      <point x="334" y="536" type="line"/>
      <point x="334" y="504" type="line" smooth="yes"/>
      <point x="334" y="489"/>
      <point x="327" y="476"/>
      <point x="308" y="476" type="curve" smooth="yes"/>
      <point x="291" y="476"/>
      <point x="282" y="484"/>
      <point x="282" y="496" type="curve"/>
    </contour>
    <contour>
      <point x="306" y="586" type="curve"/>
      <point x="290" y="586"/>
      <point x="278" y="595"/>
      <point x="278" y="610" type="curve" smooth="yes"/>
      <point x="278" y="625"/>
      <point x="290" y="634"/>
      <point x="306" y="634" type="curve" smooth="yes"/>
      <point x="322" y="634"/>
      <point x="334" y="625"/>
      <point x="334" y="610" type="curve" smooth="yes"/>
      <point x="334" y="595"/>
      <point x="322" y="586"/>
    </contour>
  </outline>
</glyph>
<glyph name="uni207D" format="1">
  <advance width="612"/>
  <unicode hex="207D"/>
  <outline>
    <contour>
      <point x="381" y="375" type="line"/>
      <point x="315" y="375"/>
      <point x="271" y="422"/>
      <point x="271" y="488" type="curve" smooth="yes"/>
      <point x="271" y="624" type="line" smooth="yes"/>
      <point x="271" y="690"/>
      <point x="315" y="737"/>
      <point x="381" y="737" type="curve" smooth="yes"/>
      <point x="413" y="737" type="line"/>
      <point x="413" y="809" type="line"/>
      <point x="377" y="809" type="line" smooth="yes"/>
      <point x="273" y="809"/>
      <point x="199" y="738"/>
      <point x="199" y="622" type="curve" smooth="yes"/>
      <point x="199" y="490" type="line" smooth="yes"/>
      <point x="199" y="374"/>
      <point x="273" y="303"/>
      <point x="377" y="303" type="curve" smooth="yes"/>
      <point x="413" y="303" type="line"/>
      <point x="413" y="375" type="line"/>
    </contour>
  </outline>
</glyph>
<glyph name="uni20A1" format="1">
  <advance width="612"/>
  <unicode hex="20A1"/>
  <outline>
    <contour>
      <point x="149" y="33" type="line"/>
      <point x="219" y="18" type="line"/>
      <point x="236" y="97" type="line"/>
      <point x="247" y="94"/>
      <point x="258" y="92"/>
      <point x="269" y="90" type="curve"/>
      <point x="257" y="33" type="line"/>
      <point x="327" y="18" type="line"/>
      <point x="342" y="90" type="line"/>
      <point x="457" y="101"/>
      <point x="535" y="175"/>
      <point x="554" y="278" type="curve"/>
      <point x="442" y="304" type="line"/>
      <point x="433" y="263"/>
      <point x="412" y="223"/>
      <point x="367" y="205" type="curve"/>
      <point x="420" y="450" type="line"/>
      <point x="430" y="434"/>
      <point x="436" y="415"/>
      <point x="440" y="396" type="curve"/>
      <point x="552" y="422" type="line"/>
      <point x="541" y="489"/>
      <point x="503" y="543"/>
      <point x="447" y="577" type="curve"/>
      <point x="467" y="667" type="line"/>
      <point x="397" y="682" type="line"/>
      <point x="380" y="604" type="line"/>
      <point x="346" y="610" type="line"/>
      <point x="359" y="667" type="line"/>
      <point x="289" y="682" type="line"/>
      <point x="273" y="609" type="line"/>
      <point x="151" y="593"/>
      <point x="54" y="499"/>
      <point x="54" y="354" type="curve" smooth="yes"/>
      <point x="54" y="342" type="line" smooth="yes"/>
      <point x="54" y="240"/>
      <point x="100" y="166"/>
      <point x="169" y="125" type="curve"/>
    </contour>
    <contour>
      <point x="259" y="205" type="curve"/>
      <point x="323" y="503" type="line"/>
      <point x="336" y="502"/>
      <point x="347" y="501"/>
      <point x="357" y="498" type="curve"/>
      <point x="292" y="197" type="line"/>
      <point x="280" y="199"/>
      <point x="269" y="201"/>
    </contour>
    <contour>
      <point x="168" y="345" type="curve"/>
      <point x="168" y="351" type="line" smooth="yes"/>
      <point x="168" y="415"/>
      <point x="200" y="465"/>
      <point x="247" y="489" type="curve"/>
      <point x="196" y="251" type="line"/>
      <point x="178" y="275"/>
      <point x="168" y="307"/>
    </contour>
  </outline>
</glyph>
<glyph name="Euro" format="1">
  <advance width="612"/>
  <unicode hex="20AC"/>
  <outline>
    <contour>
      <point x="32" y="363" type="line"/>
      <point x="80" y="363" type="line"/>
      <point x="80" y="333" type="line"/>
      <point x="32" y="333" type="line"/>
      <point x="32" y="237" type="line"/>
      <point x="99" y="237" type="line"/>
      <point x="137" y="141"/>
      <point x="230" y="88"/>
      <point x="336" y="88" type="curve" smooth="yes"/>
      <point x="468" y="88"/>
      <point x="560" y="166"/>
      <point x="580" y="278" type="curve"/>
      <point x="468" y="304" type="line"/>
      <point x="456" y="250"/>
      <point x="422" y="196"/>
      <point x="340" y="196" type="curve" smooth="yes"/>
      <point x="298" y="196"/>
      <point x="261" y="210"/>
      <point x="234" y="237" type="curve"/>
      <point x="340" y="237" type="line"/>
      <point x="340" y="333" type="line"/>
      <point x="194" y="333" type="line"/>
      <point x="194" y="363" type="line"/>
      <point x="340" y="363" type="line"/>
      <point x="340" y="459" type="line"/>
      <point x="233" y="459" type="line"/>
      <point x="259" y="487"/>
      <point x="296" y="504"/>
      <point x="338" y="504" type="curve" smooth="yes"/>
      <point x="420" y="504"/>
      <point x="456" y="454"/>
      <point x="466" y="396" type="curve"/>
      <point x="578" y="422" type="line"/>
      <point x="560" y="534"/>
      <point x="466" y="612"/>
      <point x="338" y="612" type="curve" smooth="yes"/>
      <point x="232" y="612"/>
      <point x="138" y="556"/>
      <point x="99" y="459" type="curve"/>
      <point x="32" y="459" type="line"/>
    </contour>
  </outline>
</glyph>
<glyph name="uni2113" format="1">
  <advance width="612"/>
  <unicode hex="2113"/>
  <outline>
    <contour>
      <point x="324" y="150" type="curve"/>
      <point x="324" y="210" type="line"/>
      <point x="451" y="260"/>
      <point x="528" y="373"/>
      <point x="528" y="522" type="curve" smooth="yes"/>
      <point x="528" y="630"/>
      <point x="474" y="714"/>
      <point x="360" y="714" type="curve" smooth="yes"/>
      <point x="258" y="714"/>
      <point x="198" y="636"/>
      <point x="198" y="552" type="curve" smooth="yes"/>
      <point x="198" y="304" type="line"/>
      <point x="183" y="303"/>
      <point x="167" y="302"/>
      <point x="150" y="302" type="curve" smooth="yes"/>
      <point x="54" y="302" type="line"/>
      <point x="54" y="182" type="line"/>
      <point x="162" y="182" type="line" smooth="yes"/>
      <point x="174" y="182"/>
      <point x="186" y="182"/>
      <point x="198" y="183" type="curve"/>
      <point x="198" y="96" type="line" smooth="yes"/>
      <point x="198" y="40"/>
      <point x="238" y="0"/>
      <point x="294" y="0" type="curve" smooth="yes"/>
      <point x="504" y="0" type="line"/>
      <point x="504" y="120" type="line"/>
      <point x="351" y="120" type="line" smooth="yes"/>
      <point x="332" y="120"/>
      <point x="324" y="131"/>
    </contour>
    <contour>
      <point x="324" y="540" type="line" smooth="yes"/>
      <point x="324" y="576"/>
      <point x="338" y="594"/>
      <point x="362" y="594" type="curve" smooth="yes"/>
      <point x="392" y="594"/>
      <point x="402" y="566"/>
      <point x="402" y="522" type="curve" smooth="yes"/>
      <point x="402" y="447"/>
      <point x="376" y="388"/>
      <point x="324" y="349" type="curve"/>
    </contour>
  </outline>
</glyph>
<glyph name="uni2120" format="1">
  <advance width="612"/>
  <unicode hex="2120"/>
  <outline>
    <contour>
      <point x="278" y="412" type="line"/>
      <point x="354" y="412" type="line"/>
      <point x="354" y="646" type="line"/>
      <point x="366" y="646" type="line"/>
      <point x="366" y="610" type="line"/>
      <point x="380" y="412" type="line"/>
      <point x="476" y="412" type="line"/>
      <point x="490" y="610" type="line"/>
      <point x="490" y="646" type="line"/>
      <point x="502" y="646" type="line"/>
      <point x="502" y="412" type="line"/>
      <point x="578" y="412" type="line"/>
      <point x="578" y="700" type="line"/>
      <point x="446" y="700" type="line"/>
      <point x="434" y="502" type="line"/>
      <point x="434" y="466" type="line"/>
      <point x="422" y="466" type="line"/>
      <point x="422" y="502" type="line"/>
      <point x="410" y="700" type="line"/>
      <point x="278" y="700" type="line"/>
    </contour>
    <contour>
      <point x="172" y="608" type="line"/>
      <point x="248" y="608" type="line"/>
      <point x="248" y="620" type="line" smooth="yes"/>
      <point x="248" y="668"/>
      <point x="210" y="706"/>
      <point x="142" y="706" type="curve" smooth="yes"/>
      <point x="84" y="706"/>
      <point x="38" y="674"/>
      <point x="38" y="616" type="curve" smooth="yes"/>
      <point x="38" y="558"/>
      <point x="82" y="538"/>
      <point x="125" y="530" type="curve" smooth="yes"/>
      <point x="166" y="523"/>
      <point x="176" y="516"/>
      <point x="176" y="500" type="curve" smooth="yes"/>
      <point x="176" y="486"/>
      <point x="167" y="476"/>
      <point x="145" y="476" type="curve" smooth="yes"/>
      <point x="122" y="476"/>
      <point x="108" y="488"/>
      <point x="108" y="508" type="curve" smooth="yes"/>
      <point x="108" y="514" type="line"/>
      <point x="32" y="514" type="line"/>
      <point x="32" y="502" type="line" smooth="yes"/>
      <point x="32" y="448"/>
      <point x="70" y="406"/>
      <point x="144" y="406" type="curve" smooth="yes"/>
      <point x="214" y="406"/>
      <point x="254" y="443"/>
      <point x="254" y="498" type="curve" smooth="yes"/>
      <point x="254" y="548"/>
      <point x="229" y="577"/>
      <point x="162" y="590" type="curve" smooth="yes"/>
      <point x="128" y="597"/>
      <point x="116" y="601"/>
      <point x="116" y="616" type="curve" smooth="yes"/>
      <point x="116" y="626"/>
      <point x="124" y="636"/>
      <point x="143" y="636" type="curve" smooth="yes"/>
      <point x="162" y="636"/>
      <point x="172" y="626"/>
      <point x="172" y="614" type="curve" smooth="yes"/>
    </contour>
  </outline>
</glyph>
<glyph name="trademark" format="1">
  <advance width="612"/>
  <unicode hex="2122"/>
  <outline>
    <contour>
      <point x="30" y="628" type="line"/>
      <point x="105" y="628" type="line"/>
      <point x="105" y="412" type="line"/>
      <point x="183" y="412" type="line"/>
      <point x="183" y="628" type="line"/>
      <point x="258" y="628" type="line"/>
      <point x="258" y="700" type="line"/>
      <point x="30" y="700" type="line"/>
    </contour>
    <contour>
      <point x="282" y="412" type="line"/>
      <point x="358" y="412" type="line"/>
      <point x="358" y="646" type="line"/>
      <point x="370" y="646" type="line"/>
      <point x="370" y="610" type="line"/>
      <point x="384" y="412" type="line"/>
      <point x="480" y="412" type="line"/>
      <point x="494" y="610" type="line"/>
      <point x="494" y="646" type="line"/>
      <point x="506" y="646" type="line"/>
      <point x="506" y="412" type="line"/>
      <point x="582" y="412" type="line"/>
      <point x="582" y="700" type="line"/>
      <point x="450" y="700" type="line"/>
      <point x="438" y="502" type="line"/>
      <point x="438" y="466" type="line"/>
      <point x="426" y="466" type="line"/>
      <point x="426" y="502" type="line"/>
      <point x="414" y="700" type="line"/>
      <point x="282" y="700" type="line"/>
    </contour>
  </outline>
</glyph>
<glyph name="partialdiff" format="1">
  <advance width="612"/>
  <unicode hex="2202"/>
  <outline>
    <contour>
      <point x="409" y="464" type="curve"/>
      <point x="391" y="464" type="line"/>
      <point x="365" y="496"/>
      <point x="329" y="510"/>
      <point x="267" y="510" type="curve" smooth="yes"/>
      <point x="151" y="510"/>
      <point x="47" y="416"/>
      <point x="47" y="254" type="curve" smooth="yes"/>
      <point x="47" y="242" type="line" smooth="yes"/>
      <point x="47" y="82"/>
      <point x="163" y="-14"/>
      <point x="301" y="-14" type="curve" smooth="yes"/>
      <point x="453" y="-14"/>
      <point x="565" y="88"/>
      <point x="565" y="291" type="curve" smooth="yes"/>
      <point x="565" y="558"/>
      <point x="417" y="702"/>
      <point x="167" y="728" type="curve"/>
      <point x="147" y="614" type="line"/>
      <point x="275" y="600"/>
      <point x="373" y="556"/>
    </contour>
    <contour>
      <point x="302" y="106" type="curve" smooth="yes"/>
      <point x="225" y="106"/>
      <point x="173" y="157"/>
      <point x="173" y="245" type="curve" smooth="yes"/>
      <point x="173" y="251" type="line" smooth="yes"/>
      <point x="173" y="335"/>
      <point x="225" y="390"/>
      <point x="302" y="390" type="curve" smooth="yes"/>
      <point x="379" y="390"/>
      <point x="432" y="338"/>
      <point x="432" y="254" type="curve" smooth="yes"/>
      <point x="432" y="154"/>
      <point x="379" y="106"/>
    </contour>
  </outline>
</glyph>
<glyph name="product" format="1">
  <advance width="612"/>
  <unicode hex="220F"/>
  <outline>
    <contour>
      <point x="61" y="0" type="line"/>
      <point x="193" y="0" type="line"/>
      <point x="193" y="574" type="line"/>
      <point x="419" y="574" type="line"/>
      <point x="419" y="0" type="line"/>
      <point x="551" y="0" type="line"/>
      <point x="551" y="700" type="line"/>
      <point x="61" y="700" type="line"/>
    </contour>
  </outline>
</glyph>
<glyph name="radical" format="1">
  <advance width="612"/>
  <unicode hex="221A"/>
  <outline>
    <contour>
      <point x="24" y="298" type="line"/>
      <point x="134" y="298" type="line"/>
      <point x="193" y="0" type="line"/>
      <point x="419" y="0" type="line"/>
      <point x="588" y="856" type="line"/>
      <point x="462" y="856" type="line"/>
      <point x="315" y="84" type="line"/>
      <point x="297" y="84" type="line"/>
      <point x="234" y="412" type="line"/>
      <point x="24" y="412" type="line"/>
    </contour>
  </outline>
</glyph>
<glyph name="approxequal" format="1">
  <advance width="612"/>
  <unicode hex="2248"/>
  <outline>
    <contour>
      <point x="337" y="510" type="curve" smooth="yes"/>
      <point x="323" y="532"/>
      <point x="297" y="551"/>
      <point x="251" y="551" type="curve" smooth="yes"/>
      <point x="215" y="551"/>
      <point x="185" y="534"/>
      <point x="162" y="516" type="curve" smooth="yes"/>
      <point x="57" y="436" type="line"/>
      <point x="127" y="343" type="line"/>
      <point x="197" y="394" type="line" smooth="yes"/>
      <point x="210" y="404"/>
      <point x="223" y="413"/>
      <point x="236" y="413" type="curve" smooth="yes"/>
      <point x="255" y="413"/>
      <point x="262" y="404"/>
      <point x="278" y="378" type="curve" smooth="yes"/>
      <point x="292" y="356"/>
      <point x="318" y="337"/>
      <point x="364" y="337" type="curve" smooth="yes"/>
      <point x="400" y="337"/>
      <point x="430" y="354"/>
      <point x="453" y="372" type="curve" smooth="yes"/>
      <point x="558" y="452" type="line"/>
      <point x="488" y="545" type="line"/>
      <point x="418" y="494" type="line" smooth="yes"/>
      <point x="405" y="484"/>
      <point x="392" y="475"/>
      <point x="379" y="475" type="curve" smooth="yes"/>
      <point x="360" y="475"/>
      <point x="353" y="484"/>
    </contour>
    <contour>
      <point x="337" y="284" type="curve" smooth="yes"/>
      <point x="323" y="306"/>
      <point x="297" y="325"/>
      <point x="251" y="325" type="curve" smooth="yes"/>
      <point x="215" y="325"/>
      <point x="185" y="308"/>
      <point x="162" y="290" type="curve" smooth="yes"/>
      <point x="54" y="208" type="line"/>
      <point x="124" y="115" type="line"/>
      <point x="197" y="168" type="line" smooth="yes"/>
      <point x="210" y="178"/>
      <point x="223" y="187"/>
      <point x="236" y="187" type="curve" smooth="yes"/>
      <point x="255" y="187"/>
      <point x="262" y="178"/>
      <point x="278" y="152" type="curve" smooth="yes"/>
      <point x="292" y="130"/>
      <point x="318" y="111"/>
      <point x="364" y="111" type="curve" smooth="yes"/>
      <point x="400" y="111"/>
      <point x="430" y="128"/>
      <point x="453" y="146" type="curve" smooth="yes"/>
      <point x="558" y="226" type="line"/>
      <point x="488" y="319" type="line"/>
      <point x="418" y="268" type="line" smooth="yes"/>
      <point x="405" y="258"/>
      <point x="392" y="249"/>
      <point x="379" y="249" type="curve" smooth="yes"/>
      <point x="360" y="249"/>
      <point x="353" y="258"/>
    </contour>
  </outline>
</glyph>
<glyph name="notequal" format="1">
  <advance width="612"/>
  <unicode hex="2260"/>
  <outline>
    <contour>
      <point x="97" y="380" type="line"/>
      <point x="253" y="380" type="line"/>
      <point x="233" y="320" type="line"/>
      <point x="97" y="320" type="line"/>
      <point x="97" y="206" type="line"/>
      <point x="196" y="206" type="line"/>
      <point x="175" y="142" type="line"/>
      <point x="288" y="107" type="line"/>
      <point x="320" y="206" type="line"/>
      <point x="515" y="206" type="line"/>
      <point x="515" y="320" type="line"/>
      <point x="358" y="320" type="line"/>
      <point x="378" y="380" type="line"/>
      <point x="515" y="380" type="line"/>
      <point x="515" y="494" type="line"/>
      <point x="416" y="494" type="line"/>
      <point x="437" y="558" type="line"/>
      <point x="324" y="593" type="line"/>
      <point x="291" y="494" type="line"/>
      <point x="97" y="494" type="line"/>
    </contour>
  </outline>
</glyph>
<glyph name="greaterequal" format="1">
  <advance width="612"/>
  <unicode hex="2265"/>
  <outline>
    <contour>
      <point x="515" y="108" type="line"/>
      <point x="97" y="108" type="line"/>
      <point x="97" y="0" type="line"/>
      <point x="515" y="0" type="line"/>
    </contour>
    <contour>
      <point x="515" y="246" type="line"/>
      <point x="515" y="454" type="line"/>
      <point x="97" y="564" type="line"/>
      <point x="97" y="444" type="line"/>
      <point x="437" y="359" type="line"/>
      <point x="437" y="341" type="line"/>
      <point x="97" y="256" type="line"/>
      <point x="97" y="136" type="line"/>
    </contour>
  </outline>
</glyph>
<glyph name="lozenge" format="1">
  <advance width="612"/>
  <unicode hex="25CA"/>
  <outline>
    <contour>
      <point x="573" y="350" type="line"/>
      <point x="429" y="700" type="line"/>
      <point x="183" y="700" type="line"/>
      <point x="39" y="350" type="line"/>
      <point x="183" y="0" type="line"/>
      <point x="429" y="0" type="line"/>
    </contour>
    <contour>
      <point x="297" y="66" type="line"/>
      <point x="180" y="350" type="line"/>
      <point x="297" y="634" type="line"/>
      <point x="315" y="634" type="line"/>
      <point x="432" y="350" type="line"/>
      <point x="315" y="66" type="line"/>
    </contour>
  </outline>
</glyph>
<glyph name="fl" format="1">
  <advance width="612"/>
  <unicode hex="FB02"/>
  <outline>
    <contour>
      <point x="368" y="496" type="line"/>
      <point x="267" y="496" type="line"/>
      <point x="267" y="550" type="line" smooth="yes"/>
      <point x="267" y="569"/>
      <point x="275" y="580"/>
      <point x="294" y="580" type="curve" smooth="yes"/>
      <point x="416" y="580" type="line"/>
      <point x="416" y="0" type="line"/>
      <point x="542" y="0" type="line"/>
      <point x="542" y="700" type="line"/>
      <point x="242" y="700" type="line" smooth="yes"/>
      <point x="185" y="700"/>
      <point x="141" y="655"/>
      <point x="141" y="598" type="curve" smooth="yes"/>
      <point x="141" y="496" type="line"/>
      <point x="24" y="496" type="line"/>
      <point x="24" y="376" type="line"/>
      <point x="141" y="376" type="line"/>
      <point x="141" y="0" type="line"/>
      <point x="267" y="0" type="line"/>
      <point x="267" y="376" type="line"/>
      <point x="368" y="376" type="line"/>
    </contour>
  </outline>
</glyph>
<glyph name="Euro.cap" format="1">
  <advance width="612"/>
  <outline>
    <contour>
      <point x="12" y="366" type="line"/>
      <point x="72" y="366" type="line"/>
      <point x="72" y="330" type="line"/>
      <point x="12" y="330" type="line"/>
      <point x="12" y="216" type="line"/>
      <point x="75" y="216" type="line"/>
      <point x="94" y="66"/>
      <point x="189" y="-14"/>
      <point x="332" y="-14" type="curve" smooth="yes"/>
      <point x="498" y="-14"/>
      <point x="588" y="80"/>
      <point x="588" y="246" type="curve" smooth="yes"/>
      <point x="588" y="252" type="line"/>
      <point x="456" y="270" type="line"/>
      <point x="456" y="246" type="line" smooth="yes"/>
      <point x="456" y="174"/>
      <point x="434" y="106"/>
      <point x="332" y="106" type="curve" smooth="yes"/>
      <point x="255" y="106"/>
      <point x="218" y="150"/>
      <point x="207" y="216" type="curve"/>
      <point x="338" y="216" type="line"/>
      <point x="338" y="330" type="line"/>
      <point x="204" y="330" type="line"/>
      <point x="204" y="366" type="line"/>
      <point x="338" y="366" type="line"/>
      <point x="338" y="480" type="line"/>
      <point x="207" y="480" type="line"/>
      <point x="219" y="544"/>
      <point x="259" y="594"/>
      <point x="332" y="594" type="curve" smooth="yes"/>
      <point x="428" y="594"/>
      <point x="456" y="520"/>
      <point x="456" y="454" type="curve" smooth="yes"/>
      <point x="456" y="430" type="line"/>
      <point x="588" y="448" type="line"/>
      <point x="588" y="454" type="line" smooth="yes"/>
      <point x="588" y="614"/>
      <point x="498" y="714"/>
      <point x="332" y="714" type="curve" smooth="yes"/>
      <point x="188" y="714"/>
      <point x="93" y="628"/>
      <point x="75" y="480" type="curve"/>
      <point x="12" y="480" type="line"/>
    </contour>
  </outline>
</glyph>
<glyph name="aogonek.alt" format="1">
  <advance width="612"/>
  <outline>
    <contour>
      <point x="388" y="66" type="line"/>
      <point x="389" y="42"/>
      <point x="399" y="25"/>
      <point x="416" y="14" type="curve"/>
      <point x="397" y="-72" type="line" smooth="yes"/>
      <point x="395" y="-81"/>
      <point x="394" y="-88"/>
      <point x="394" y="-95" type="curve" smooth="yes"/>
      <point x="394" y="-144"/>
      <point x="434" y="-170"/>
      <point x="474" y="-170" type="curve" smooth="yes"/>
      <point x="554" y="-170" type="line"/>
      <point x="554" y="-86" type="line"/>
      <point x="508" y="-86" type="line" smooth="yes"/>
      <point x="494" y="-86"/>
      <point x="485" y="-78"/>
      <point x="485" y="-64" type="curve" smooth="yes"/>
      <point x="485" y="-62"/>
      <point x="485" y="-61"/>
      <point x="486" y="-56" type="curve" smooth="yes"/>
      <point x="499" y="0" type="line"/>
      <point x="554" y="0" type="line"/>
      <point x="554" y="120" type="line"/>
      <point x="523" y="120" type="line" smooth="yes"/>
      <point x="504" y="120"/>
      <point x="496" y="131"/>
      <point x="496" y="150" type="curve" smooth="yes"/>
      <point x="496" y="318" type="line" smooth="yes"/>
      <point x="496" y="432"/>
      <point x="405" y="510"/>
      <point x="289" y="510" type="curve" smooth="yes"/>
      <point x="179" y="510"/>
      <point x="114" y="452"/>
      <point x="84" y="392" type="curve"/>
      <point x="186" y="330" type="line"/>
      <point x="200" y="366"/>
      <point x="236" y="390"/>
      <point x="280" y="390" type="curve" smooth="yes"/>
      <point x="338" y="390"/>
      <point x="370" y="354"/>
      <point x="370" y="312" type="curve" smooth="yes"/>
      <point x="370" y="306" type="line"/>
      <point x="236" y="306" type="line" smooth="yes"/>
      <point x="142" y="306"/>
      <point x="66" y="244"/>
      <point x="66" y="148" type="curve" smooth="yes"/>
      <point x="66" y="142" type="line" smooth="yes"/>
      <point x="66" y="54"/>
      <point x="126" y="-14"/>
      <point x="240" y="-14" type="curve" smooth="yes"/>
      <point x="316" y="-14"/>
      <point x="354" y="18"/>
      <point x="370" y="66" type="curve"/>
    </contour>
    <contour>
      <point x="264" y="106" type="curve" smooth="yes"/>
      <point x="218" y="106"/>
      <point x="198" y="126"/>
      <point x="198" y="154" type="curve" smooth="yes"/>
      <point x="198" y="178"/>
      <point x="216" y="198"/>
      <point x="252" y="198" type="curve" smooth="yes"/>
      <point x="370" y="198" type="line"/>
      <point x="370" y="146"/>
      <point x="330" y="106"/>
    </contour>
  </outline>
</glyph>
<glyph name="asterisk.cap" format="1">
  <advance width="612"/>
  <outline>
    <contour>
      <point x="515" y="324" type="line"/>
      <point x="442" y="397" type="line"/>
      <point x="368" y="430" type="line"/>
      <point x="375" y="446" type="line"/>
      <point x="448" y="418" type="line"/>
      <point x="554" y="418" type="line"/>
      <point x="554" y="514" type="line"/>
      <point x="448" y="514" type="line"/>
      <point x="375" y="486" type="line"/>
      <point x="368" y="502" type="line"/>
      <point x="442" y="535" type="line"/>
      <point x="515" y="608" type="line"/>
      <point x="448" y="675" type="line"/>
      <point x="375" y="602" type="line"/>
      <point x="342" y="528" type="line"/>
      <point x="326" y="535" type="line"/>
      <point x="354" y="608" type="line"/>
      <point x="354" y="714" type="line"/>
      <point x="258" y="714" type="line"/>
      <point x="258" y="608" type="line"/>
      <point x="286" y="535" type="line"/>
      <point x="270" y="528" type="line"/>
      <point x="237" y="602" type="line"/>
      <point x="164" y="675" type="line"/>
      <point x="97" y="608" type="line"/>
      <point x="170" y="535" type="line"/>
      <point x="244" y="502" type="line"/>
      <point x="237" y="486" type="line"/>
      <point x="164" y="514" type="line"/>
      <point x="58" y="514" type="line"/>
      <point x="58" y="418" type="line"/>
      <point x="164" y="418" type="line"/>
      <point x="237" y="446" type="line"/>
      <point x="244" y="430" type="line"/>
      <point x="170" y="397" type="line"/>
      <point x="97" y="324" type="line"/>
      <point x="164" y="257" type="line"/>
      <point x="237" y="330" type="line"/>
      <point x="270" y="404" type="line"/>
      <point x="286" y="397" type="line"/>
      <point x="258" y="324" type="line"/>
      <point x="258" y="218" type="line"/>
      <point x="354" y="218" type="line"/>
      <point x="354" y="324" type="line"/>
      <point x="326" y="397" type="line"/>
      <point x="342" y="404" type="line"/>
      <point x="375" y="330" type="line"/>
      <point x="448" y="257" type="line"/>
    </contour>
  </outline>
</glyph>
<glyph name="at.cap" format="1">
  <advance width="612"/>
  <outline>
    <contour>
      <point x="558" y="530" type="line" smooth="yes"/>
      <point x="558" y="654"/>
      <point x="488" y="714"/>
      <point x="368" y="714" type="curve" smooth="yes"/>
      <point x="200" y="714" type="line" smooth="yes"/>
      <point x="94" y="714"/>
      <point x="20" y="646"/>
      <point x="20" y="530" type="curve" smooth="yes"/>
      <point x="20" y="4" type="line" smooth="yes"/>
      <point x="20" y="-126"/>
      <point x="92" y="-200"/>
      <point x="224" y="-200" type="curve" smooth="yes"/>
      <point x="604" y="-200" type="line"/>
      <point x="604" y="-80" type="line"/>
      <point x="244" y="-80" type="line" smooth="yes"/>
      <point x="168" y="-80"/>
      <point x="146" y="-38"/>
      <point x="146" y="32" type="curve" smooth="yes"/>
      <point x="146" y="510" type="line" smooth="yes"/>
      <point x="146" y="568"/>
      <point x="170" y="594"/>
      <point x="224" y="594" type="curve" smooth="yes"/>
      <point x="360" y="594" type="line" smooth="yes"/>
      <point x="406" y="594"/>
      <point x="432" y="570"/>
      <point x="432" y="528" type="curve" smooth="yes"/>
      <point x="432" y="448" type="line"/>
      <point x="414" y="448" type="line"/>
      <point x="408" y="486"/>
      <point x="373" y="510"/>
      <point x="330" y="510" type="curve" smooth="yes"/>
      <point x="244" y="510"/>
      <point x="186" y="441"/>
      <point x="186" y="269" type="curve" smooth="yes"/>
      <point x="186" y="235" type="line" smooth="yes"/>
      <point x="186" y="69"/>
      <point x="228" y="-14"/>
      <point x="328" y="-14" type="curve" smooth="yes"/>
      <point x="383" y="-14"/>
      <point x="410" y="16"/>
      <point x="420" y="54" type="curve"/>
      <point x="438" y="54" type="line"/>
      <point x="444" y="20"/>
      <point x="472" y="0"/>
      <point x="508" y="0" type="curve" smooth="yes"/>
      <point x="604" y="0" type="line"/>
      <point x="604" y="120" type="line"/>
      <point x="585" y="120" type="line" smooth="yes"/>
      <point x="566" y="120"/>
      <point x="558" y="131"/>
      <point x="558" y="150" type="curve" smooth="yes"/>
    </contour>
    <contour>
      <point x="374" y="390" type="curve" smooth="yes"/>
      <point x="416" y="390"/>
      <point x="432" y="356"/>
      <point x="432" y="302" type="curve" smooth="yes"/>
      <point x="432" y="194" type="line" smooth="yes"/>
      <point x="432" y="140"/>
      <point x="416" y="106"/>
      <point x="374" y="106" type="curve" smooth="yes"/>
      <point x="330" y="106"/>
      <point x="312" y="146"/>
      <point x="312" y="233" type="curve" smooth="yes"/>
      <point x="312" y="263" type="line" smooth="yes"/>
      <point x="312" y="350"/>
      <point x="330" y="390"/>
    </contour>
  </outline>
</glyph>
<glyph name="dotlessi.alt" format="1">
  <advance width="612"/>
  <outline>
    <contour>
      <point x="301" y="0" type="line"/>
      <point x="427" y="0" type="line"/>
      <point x="427" y="496" type="line"/>
      <point x="127" y="496" type="line"/>
      <point x="127" y="376" type="line"/>
      <point x="301" y="376" type="line"/>
    </contour>
  </outline>
</glyph>
<glyph name="g.alt" format="1">
  <advance width="612"/>
  <outline>
    <contour>
      <point x="226" y="102" type="line" smooth="yes"/>
      <point x="206" y="102"/>
      <point x="194" y="110"/>
      <point x="194" y="127" type="curve" smooth="yes"/>
      <point x="194" y="143"/>
      <point x="206" y="150"/>
      <point x="218" y="152" type="curve"/>
      <point x="236" y="144"/>
      <point x="256" y="136"/>
      <point x="298" y="136" type="curve" smooth="yes"/>
      <point x="416" y="136"/>
      <point x="488" y="210"/>
      <point x="488" y="296" type="curve" smooth="yes"/>
      <point x="488" y="323"/>
      <point x="481" y="348"/>
      <point x="466" y="364" type="curve"/>
      <point x="466" y="382" type="line"/>
      <point x="535" y="382" type="line"/>
      <point x="535" y="496" type="line"/>
      <point x="372" y="496" type="line"/>
      <point x="354" y="504"/>
      <point x="324" y="510"/>
      <point x="298" y="510" type="curve" smooth="yes"/>
      <point x="186" y="510"/>
      <point x="102" y="440"/>
      <point x="102" y="326" type="curve" smooth="yes"/>
      <point x="102" y="320" type="line" smooth="yes"/>
      <point x="102" y="268"/>
      <point x="124" y="230"/>
      <point x="141" y="210" type="curve"/>
      <point x="141" y="192" type="line"/>
      <point x="114" y="180"/>
      <point x="90" y="154"/>
      <point x="90" y="114" type="curve" smooth="yes"/>
      <point x="90" y="72"/>
      <point x="112" y="48"/>
      <point x="138" y="38" type="curve"/>
      <point x="138" y="20" type="line"/>
      <point x="102" y="4"/>
      <point x="82" y="-30"/>
      <point x="82" y="-74" type="curve" smooth="yes"/>
      <point x="82" y="-150"/>
      <point x="134" y="-200"/>
      <point x="232" y="-200" type="curve" smooth="yes"/>
      <point x="380" y="-200" type="line" smooth="yes"/>
      <point x="482" y="-200"/>
      <point x="535" y="-128"/>
      <point x="535" y="-50" type="curve" smooth="yes"/>
      <point x="535" y="-44" type="line" smooth="yes"/>
      <point x="535" y="32"/>
      <point x="476" y="102"/>
      <point x="374" y="102" type="curve" smooth="yes"/>
    </contour>
    <contour>
      <point x="298" y="390" type="curve" smooth="yes"/>
      <point x="338" y="390"/>
      <point x="369" y="366"/>
      <point x="369" y="324" type="curve" smooth="yes"/>
      <point x="369" y="282"/>
      <point x="338" y="258"/>
      <point x="298" y="258" type="curve" smooth="yes"/>
      <point x="258" y="258"/>
      <point x="227" y="282"/>
      <point x="227" y="324" type="curve" smooth="yes"/>
      <point x="227" y="366"/>
      <point x="258" y="390"/>
    </contour>
    <contour>
      <point x="251" y="-80" type="line"/>
      <point x="224" y="-80"/>
      <point x="208" y="-69"/>
      <point x="208" y="-46" type="curve" smooth="yes"/>
      <point x="208" y="-23"/>
      <point x="224" y="-12"/>
      <point x="251" y="-12" type="curve" smooth="yes"/>
      <point x="366" y="-12" type="line" smooth="yes"/>
      <point x="393" y="-12"/>
      <point x="409" y="-23"/>
      <point x="409" y="-46" type="curve" smooth="yes"/>
      <point x="409" y="-69"/>
      <point x="393" y="-80"/>
      <point x="366" y="-80" type="curve"/>
    </contour>
  </outline>
</glyph>
<glyph name="i.alt" format="1">
  <advance width="612"/>
  <outline>
    <contour>
      <point x="301" y="0" type="line"/>
      <point x="427" y="0" type="line"/>
      <point x="427" y="496" type="line"/>
      <point x="127" y="496" type="line"/>
      <point x="127" y="376" type="line"/>
      <point x="301" y="376" type="line"/>
    </contour>
    <contour>
      <point x="458" y="643" type="curve" smooth="yes"/>
      <point x="458" y="696"/>
      <point x="415" y="738"/>
      <point x="363" y="738" type="curve" smooth="yes"/>
      <point x="311" y="738"/>
      <point x="268" y="696"/>
      <point x="268" y="643" type="curve" smooth="yes"/>
      <point x="268" y="590"/>
      <point x="311" y="548"/>
      <point x="363" y="548" type="curve" smooth="yes"/>
      <point x="415" y="548"/>
      <point x="458" y="590"/>
    </contour>
  </outline>
</glyph>
<glyph name="l.alt" format="1">
  <advance width="612"/>
  <outline>
    <contour>
      <point x="380" y="0" type="line"/>
      <point x="380" y="700" type="line"/>
      <point x="80" y="700" type="line"/>
      <point x="80" y="580" type="line"/>
      <point x="254" y="580" type="line"/>
      <point x="254" y="0" type="line"/>
    </contour>
  </outline>
</glyph>
<glyph name="paragraph.cap" format="1">
  <advance width="612"/>
  <outline>
    <contour>
      <point x="276" y="700" type="line" smooth="yes"/>
      <point x="140" y="700"/>
      <point x="58" y="608"/>
      <point x="58" y="498" type="curve" smooth="yes"/>
      <point x="58" y="486" type="line" smooth="yes"/>
      <point x="58" y="376"/>
      <point x="138" y="284"/>
      <point x="270" y="284" type="curve" smooth="yes"/>
      <point x="276" y="284" type="line"/>
      <point x="276" y="0" type="line"/>
      <point x="384" y="0" type="line"/>
      <point x="384" y="598" type="line"/>
      <point x="426" y="598" type="line"/>
      <point x="426" y="0" type="line"/>
      <point x="534" y="0" type="line"/>
      <point x="534" y="700" type="line"/>
    </contour>
    <contour>
      <point x="166" y="495" type="line"/>
      <point x="166" y="564"/>
      <point x="216" y="598"/>
      <point x="264" y="598" type="curve" smooth="yes"/>
      <point x="276" y="598" type="line"/>
      <point x="276" y="386" type="line"/>
      <point x="264" y="386" type="line" smooth="yes"/>
      <point x="216" y="386"/>
      <point x="166" y="420"/>
      <point x="166" y="489" type="curve"/>
    </contour>
  </outline>
</glyph>
<glyph name="registered.cap" format="1">
  <advance width="612"/>
  <outline>
    <contour>
      <point x="430" y="278" type="line" smooth="yes"/>
      <point x="430" y="312"/>
      <point x="418" y="328"/>
      <point x="393" y="334" type="curve"/>
      <point x="393" y="343" type="line"/>
      <point x="420" y="358"/>
      <point x="442" y="386"/>
      <point x="442" y="446" type="curve" smooth="yes"/>
      <point x="442" y="518"/>
      <point x="402" y="564"/>
      <point x="301" y="564" type="curve" smooth="yes"/>
      <point x="180" y="564" type="line"/>
      <point x="180" y="136" type="line"/>
      <point x="276" y="136" type="line"/>
      <point x="276" y="289" type="line"/>
      <point x="308" y="289" type="line" smooth="yes"/>
      <point x="326" y="289"/>
      <point x="334" y="278"/>
      <point x="334" y="262" type="curve" smooth="yes"/>
      <point x="334" y="136" type="line"/>
      <point x="430" y="136" type="line"/>
    </contour>
    <contour>
      <point x="276" y="474" type="line"/>
      <point x="296" y="474" type="line" smooth="yes"/>
      <point x="326" y="474"/>
      <point x="346" y="460"/>
      <point x="346" y="428" type="curve" smooth="yes"/>
      <point x="346" y="394"/>
      <point x="326" y="379"/>
      <point x="296" y="379" type="curve" smooth="yes"/>
      <point x="276" y="379" type="line"/>
    </contour>
    <contour>
      <point x="30" y="186" type="line"/>
      <point x="30" y="56"/>
      <point x="106" y="-14"/>
      <point x="224" y="-14" type="curve" smooth="yes"/>
      <point x="388" y="-14" type="line" smooth="yes"/>
      <point x="506" y="-14"/>
      <point x="582" y="56"/>
      <point x="582" y="186" type="curve" smooth="yes"/>
      <point x="582" y="514" type="line" smooth="yes"/>
      <point x="582" y="644"/>
      <point x="506" y="714"/>
      <point x="388" y="714" type="curve" smooth="yes"/>
      <point x="224" y="714" type="line" smooth="yes"/>
      <point x="106" y="714"/>
      <point x="30" y="644"/>
      <point x="30" y="514" type="curve"/>
    </contour>
    <contour>
      <point x="126" y="494" type="line"/>
      <point x="126" y="574"/>
      <point x="162" y="618"/>
      <point x="240" y="618" type="curve" smooth="yes"/>
      <point x="372" y="618" type="line" smooth="yes"/>
      <point x="450" y="618"/>
      <point x="486" y="574"/>
      <point x="486" y="494" type="curve" smooth="yes"/>
      <point x="486" y="206" type="line" smooth="yes"/>
      <point x="486" y="126"/>
      <point x="450" y="82"/>
      <point x="372" y="82" type="curve" smooth="yes"/>
      <point x="240" y="82" type="line" smooth="yes"/>
      <point x="162" y="82"/>
      <point x="126" y="126"/>
      <point x="126" y="206" type="curve" smooth="yes"/>
    </contour>
  </outline>
</glyph>
<glyph name="seven.tosn" format="1">
  <advance width="612"/>
  <outline>
    <contour>
      <point x="60" y="370" type="line"/>
      <point x="426" y="370" type="line"/>
      <point x="426" y="352" type="line"/>
      <point x="175" y="-20" type="line" smooth="yes"/>
      <point x="133" y="-82"/>
      <point x="118" y="-110"/>
      <point x="118" y="-164" type="curve" smooth="yes"/>
      <point x="118" y="-194" type="line"/>
      <point x="260" y="-194" type="line"/>
      <point x="260" y="-170" type="line" smooth="yes"/>
      <point x="260" y="-134"/>
      <point x="276" y="-110"/>
      <point x="303" y="-70" type="curve" smooth="yes"/>
      <point x="546" y="290" type="line"/>
      <point x="546" y="496" type="line"/>
      <point x="60" y="496" type="line"/>
    </contour>
  </outline>
</glyph>
<glyph name="sterling.cap" format="1">
  <advance width="612"/>
  <outline>
    <contour>
      <point x="48" y="267" type="line"/>
      <point x="108" y="267" type="line"/>
      <point x="108" y="120" type="line"/>
      <point x="48" y="120" type="line"/>
      <point x="48" y="0" type="line"/>
      <point x="564" y="0" type="line"/>
      <point x="564" y="120" type="line"/>
      <point x="234" y="120" type="line"/>
      <point x="234" y="267" type="line"/>
      <point x="336" y="267" type="line"/>
      <point x="336" y="387" type="line"/>
      <point x="234" y="387" type="line"/>
      <point x="234" y="494" type="line" smooth="yes"/>
      <point x="234" y="558"/>
      <point x="275" y="594"/>
      <point x="333" y="594" type="curve" smooth="yes"/>
      <point x="395" y="594"/>
      <point x="438" y="556"/>
      <point x="438" y="494" type="curve" smooth="yes"/>
      <point x="438" y="424" type="line"/>
      <point x="564" y="424" type="line"/>
      <point x="564" y="490" type="line" smooth="yes"/>
      <point x="564" y="636"/>
      <point x="469" y="714"/>
      <point x="329" y="714" type="curve" smooth="yes"/>
      <point x="193" y="714"/>
      <point x="108" y="634"/>
      <point x="108" y="490" type="curve" smooth="yes"/>
      <point x="108" y="387" type="line"/>
      <point x="48" y="387" type="line"/>
    </contour>
  </outline>
</glyph>
<glyph name="uni013C.alt" format="1">
  <advance width="612"/>
  <outline>
    <contour>
      <point x="404" y="-131" type="line" smooth="yes"/>
      <point x="404" y="-84"/>
      <point x="364" y="-44"/>
      <point x="317" y="-44" type="curve" smooth="yes"/>
      <point x="270" y="-44"/>
      <point x="230" y="-84"/>
      <point x="230" y="-131" type="curve" smooth="yes"/>
      <point x="230" y="-178"/>
      <point x="270" y="-218"/>
      <point x="317" y="-218" type="curve" smooth="yes"/>
      <point x="326" y="-218" type="line"/>
      <point x="326" y="-230" type="line" smooth="yes"/>
      <point x="326" y="-249"/>
      <point x="318" y="-260"/>
      <point x="299" y="-260" type="curve" smooth="yes"/>
      <point x="254" y="-260" type="line"/>
      <point x="254" y="-338" type="line"/>
      <point x="314" y="-338" type="line" smooth="yes"/>
      <point x="365" y="-338"/>
      <point x="404" y="-299"/>
      <point x="404" y="-248" type="curve" smooth="yes"/>
    </contour>
    <component base="l.alt"/>
  </outline>
</glyph>
<glyph name="uni20B9.cap" format="1">
  <advance width="612"/>
  <outline>
    <contour>
      <point x="572" y="545" type="line"/>
      <point x="500" y="545" type="line"/>
      <point x="498" y="556"/>
      <point x="492" y="570"/>
      <point x="482" y="580" type="curve"/>
      <point x="482" y="586" type="line"/>
      <point x="572" y="586" type="line"/>
      <point x="572" y="700" type="line"/>
      <point x="48" y="700" type="line"/>
      <point x="48" y="586" type="line"/>
      <point x="278" y="586" type="line" smooth="yes"/>
      <point x="316" y="586"/>
      <point x="344" y="570"/>
      <point x="359" y="545" type="curve"/>
      <point x="48" y="545" type="line"/>
      <point x="48" y="431" type="line"/>
      <point x="361" y="431" type="line"/>
      <point x="345" y="404"/>
      <point x="318" y="390"/>
      <point x="278" y="390" type="curve" smooth="yes"/>
      <point x="48" y="390" type="line"/>
      <point x="48" y="264" type="line"/>
      <point x="302" y="264" type="line" smooth="yes"/>
      <point x="340" y="264"/>
      <point x="356" y="242"/>
      <point x="356" y="210" type="curve" smooth="yes"/>
      <point x="356" y="0" type="line"/>
      <point x="488" y="0" type="line"/>
      <point x="488" y="242" type="line" smooth="yes"/>
      <point x="488" y="288"/>
      <point x="460" y="322"/>
      <point x="412" y="327" type="curve"/>
      <point x="412" y="345" type="line"/>
      <point x="456" y="363"/>
      <point x="484" y="392"/>
      <point x="496" y="431" type="curve"/>
      <point x="572" y="431" type="line"/>
    </contour>
  </outline>
</glyph>
